<svg width="16" height="16" viewBox="0 0 16 16" fill="none" xmlns="http://www.w3.org/2000/svg"><path d="M12.123 2.677q-.51-.51-1.24-.51-.728 0-1.239.51-.51.51-.51 1.24 0 .474.236.88.236.404.638.633 0 .474-.077.834a1.9 1.9 0 0 1-.255.633 3 3 0 0 1-.37.465 2 2 0 0 1-.537.36 8 8 0 0 1-.643.283 13 13 0 0 1-.797.268q-.912.283-1.404.52v-4.53q.4-.228.638-.633.237-.405.237-.88 0-.73-.51-1.24T5.05 1c-.73 0-.9.17-1.24.51q-.51.51-.51 1.24 0 .474.237.88.236.405.638.633v7.474a1.7 1.7 0 0 0-.638.633 1.7 1.7 0 0 0-.237.88q0 .73.51 1.24t1.24.51c.73 0 .9-.17 1.24-.51q.51-.51.51-1.24 0-.474-.237-.88a1.7 1.7 0 0 0-.638-.633V11.5q0-.63.378-.911.378-.283 1.545-.647 1.231-.393 1.85-.739 2.042-1.158 2.06-3.773a1.7 1.7 0 0 0 .639-.634 1.7 1.7 0 0 0 .236-.88q0-.728-.51-1.239" fill="#389FD6"/></svg>