<svg xmlns="http://www.w3.org/2000/svg" width="16" height="16" viewBox="0 0 16 16"><g fill="none" fill-rule="evenodd"><circle cx="10.5" cy="11.5" r="3.5" fill="#389FD6"/><path fill="#35B0C4" d="M8.39 7.525a4.5 4.5 0 0 0-2.16 5.399 3.5 3.5 0 1 1 2.16-5.4Z"/><path fill="#389FD6" d="M5.125 7.606c.964-3.543 4.04-6.133 7.685-6.133q.568 0 1.116.082l.099-.049v1.135c-1.966 1.078-3.218 2.706-3.218 4.527q.002.64.2 1.242H9.842a5 5 0 0 1-.133-1.144c0-1.78.95-3.406 2.514-4.642C9.191 2.9 6.718 5.287 6.09 8.41h-.965z"/></g></svg>