<!--Copyright 2000-2021 JetBrains s.r.o. Use of this source code is governed by the Apache 2.0 license that can be found in the LICENSE file.--><svg xmlns="http://www.w3.org/2000/svg" width="16" height="16" viewBox="0 0 16 16"><path d="M10.363 4.712a2.98 2.98 0 0 0-1.028-2.5A2.26 2.26 0 0 1 10.373 2a1.625 1.625 0 0 1 1.835 1.859 5.13 5.13 0 0 1-.846 2.764 2 2 0 0 0 .027.236.58.58 0 0 0 .222.4 3 3 0 0 0 .5.214 8.6 8.6 0 0 1 2.051.864 1.8 1.8 0 0 1 .664.933q.033.106.058.223a3.85 3.85 0 0 0-3.663-.053 27 27 0 0 0-1.1-.389l-.294-.1a3.4 3.4 0 0 1-.527-.216 1 1 0 0 1-.041-.142l-.006-.034a7.53 7.53 0 0 0 1.11-3.847M9 13a3.98 3.98 0 0 1 1.49-3.092c-.366-.133-.737-.256-1.1-.38a3.7 3.7 0 0 1-.661-.285.77.77 0 0 1-.3-.53 2.4 2.4 0 0 1-.036-.313 6.83 6.83 0 0 0 1.128-3.688 2.167 2.167 0 0 0-2.446-2.479 2.167 2.167 0 0 0-2.447 2.478 6.73 6.73 0 0 0 1.2 3.782 3 3 0 0 1-.029.217.77.77 0 0 1-.3.526 3.6 3.6 0 0 1-.661.28 11.3 11.3 0 0 0-2.727 1.144 2.44 2.44 0 0 0-.886 1.274A5.2 5.2 0 0 0 1 13.548h8.055A4 4 0 0 1 9 13" fill="#afb1b3"/><path d="M13 10a3 3 0 1 0 3 3 3 3 0 0 0-3-3m2 3a2 2 0 0 1-.283 1.01l-2.727-2.727A1.988 1.988 0 0 1 15 13m-4 0a2 2 0 0 1 .283-1.01l2.727 2.727A1.988 1.988 0 0 1 11 13" fill="#C75450"/></svg>