<!--Copyright 2000-2021 JetBrains s.r.o. Use of this source code is governed by the Apache 2.0 license that can be found in the LICENSE file.--><svg xmlns="http://www.w3.org/2000/svg" width="16" height="16" viewBox="0 0 16 16"><path d="M10.363 4.712a2.978 2.978 0 0 0-1.028-2.5A2.259 2.259 0 0 1 10.373 2a1.625 1.625 0 0 1 1.835 1.859 5.125 5.125 0 0 1-.846 2.764 1.874 1.874 0 0 0 .027.236.576.576 0 0 0 .222.4 2.791 2.791 0 0 0 .5.214 8.556 8.556 0 0 1 2.051.864 1.785 1.785 0 0 1 .664.933c.023.069.04.146.058.223a3.854 3.854 0 0 0-3.663-.053 26.923 26.923 0 0 0-1.1-.389l-.294-.1a3.359 3.359 0 0 1-.527-.216.766.766 0 0 1-.041-.142l-.006-.034a7.528 7.528 0 0 0 1.11-3.847ZM9 13a3.977 3.977 0 0 1 1.49-3.092c-.366-.133-.737-.256-1.1-.38a3.683 3.683 0 0 1-.661-.285.773.773 0 0 1-.3-.53 2.427 2.427 0 0 1-.036-.313 6.827 6.827 0 0 0 1.128-3.688 2.167 2.167 0 0 0-2.446-2.479 2.167 2.167 0 0 0-2.447 2.478 6.725 6.725 0 0 0 1.2 3.782 2.688 2.688 0 0 1-.029.217.765.765 0 0 1-.3.526 3.593 3.593 0 0 1-.661.28 11.329 11.329 0 0 0-2.727 1.144 2.443 2.443 0 0 0-.886 1.274A5.192 5.192 0 0 0 1 13.548h8.055A3.958 3.958 0 0 1 9 13Z" fill="#6e6e6e"/><path d="M13 10a3 3 0 1 0 3 3 3 3 0 0 0-3-3Zm2 3a1.983 1.983 0 0 1-.283 1.01l-2.727-2.727A1.988 1.988 0 0 1 15 13Zm-4 0a1.983 1.983 0 0 1 .283-1.01l2.727 2.727A1.988 1.988 0 0 1 11 13Z" fill="#DB5860"/></svg>