<svg width="13" height="13" viewBox="0.9 0.9 22.2 22.2" fill="none" xmlns="http://www.w3.org/2000/svg"><path d="M21.18 14.04v4.08a1.02 1.02 0 0 1-1.02 1.02H3.84a1.02 1.02 0 0 1-1.02-1.02v-4.08m18.36 0v-3.06a2.04 2.04 0 0 0-2.04-2.04h-3.06m5.1 5.1H17.1m-14.28 0v-3.06a2.04 2.04 0 0 1 2.04-2.04h3.06m-5.1 5.1H6.9m0 0v-1.02m0 1.02v1.02m0-1.02h10.2m0 0v1.02-2.04m-1.02-4.08V6.9a2.04 2.04 0 0 0-2.04-2.04H9.96A2.04 2.04 0 0 0 7.92 6.9v2.04m8.16 0H7.92" stroke="#59a869" stroke-width="1.9" stroke-linecap="round" opacity=".8" stroke-linejoin="round"/></svg>