<svg width="16" height="16" viewBox="0 0 16 16" fill="none" xmlns="http://www.w3.org/2000/svg"><g clip-path="url(#a)"><mask id="b" fill="#fff"><rect x="7" y="9" width="8" height="5" rx=".5"/></mask><rect x="7" y="9" width="8" height="5" rx=".5" stroke="#3ddc84" stroke-width="2" mask="url(#b)"/><path d="M7.5 15.5h7" stroke="#3ddc84" stroke-linecap="round"/><path fill-rule="evenodd" clip-rule="evenodd" d="M4 1a2 2 0 0 0-2 2v10a2 2 0 0 0 2 2h2v-1H4a1 1 0 0 1-1-1V3a1 1 0 0 1 1-1h5a1 1 0 0 1 1 1v5h1V3a2 2 0 0 0-2-2zm1.5 2a.5.5 0 0 0 0 1h2a.5.5 0 0 0 0-1z" fill="#6C707E"/></g><defs><clipPath id="a"><path fill="#fff" d="M0 0h16v16H0z"/></clipPath></defs></svg>