<svg width="16" height="16" viewBox="0 0 16 16" fill="none" xmlns="http://www.w3.org/2000/svg"><circle cx="12.5" cy="12.5" r="3.5" fill="#E55765"/><path d="M12.5 10a.5.5 0 0 0-.5.5v2a.5.5 0 0 0 1 0v-2a.5.5 0 0 0-.5-.5m0 5a.5.5 0 1 0 0-1 .5.5 0 0 0 0 1" fill="#fff"/><path fill-rule="evenodd" clip-rule="evenodd" d="M11.271 2.012c.035 0 .074-.002.102-.003a24 24 0 0 1 2.567.065s.206 2.376-.145 5.08a5.5 5.5 0 0 0-.99-.146q.077-.601.12-1.185a27 27 0 0 0 .063-2.804 23 23 0 0 0-1.588-.01h-.004l-.085.003-.058.002 1.735.005-1.735-.005c-1.67.051-3.704.26-5.453.907-.024.01-.06.022-.093.034l-.04.014-.113.042-.011.004-.011.004a6.45 6.45 0 0 0-2.277 1.437c-1.778 1.842-1.687 4.974.404 6.998 1.026.993 2.304 1.5 3.547 1.543q.148.523.392 1c-1.63.056-3.326-.558-4.634-1.824C.519 10.806.33 7.033 2.546 4.75a7.45 7.45 0 0 1 2.64-1.67c.056-.022.132-.049.193-.07q.046-.016.074-.028c1.9-.702 4.06-.916 5.77-.969z" fill="#E55765"/><path fill-rule="evenodd" clip-rule="evenodd" d="M5.698 7.45a.5.5 0 1 0-.717-.697c-1.132 1.166-1.003 3.044.184 4.193a3.18 3.18 0 0 0 1.876.88 5.5 5.5 0 0 1 .214-.985 2.14 2.14 0 0 1-1.395-.614c-.836-.81-.864-2.054-.162-2.778" fill="#E55765"/></svg>