<svg width="16" height="16" viewBox="0 0 16 16" fill="none" xmlns="http://www.w3.org/2000/svg"><path d="M11.385 2.51h.002q1.042-.03 2.082.032a27 27 0 0 1-.045 3.318c-.161 2.125-.626 4.62-1.784 6.354l-.001.002q-.27.406-.604.76c-1.974 2.078-5.451 2.037-7.723-.163C1.044 10.619.904 7.166 2.9 5.103A6.95 6.95 0 0 1 5.36 3.55l.01-.004c.05-.02.107-.04.162-.06l.095-.034c1.824-.675 3.921-.886 5.61-.938l.054-.002zm-.012-.5Z" stroke="#B589EC"/><path d="M5.34 7.101c-.917.945-.84 2.506.173 3.486 1.011.979 2.583 1.015 3.49.06q.15-.159.272-.342" stroke="#B589EC" stroke-linecap="round"/></svg>