<svg width="13" height="13" viewBox="0 0 16 16" xmlns="http://www.w3.org/2000/svg"><g fill="none" fill-rule="evenodd"><path fill="#DDB47E" d="M2.5 8h11c.322.306.5.644.5 1 0 .563-.446 1.082-1.2 1.5h-1.3L8 13.9l-3.5-3.4H3.2C2.446 10.082 2 9.563 2 9c0-.356.178-.694.5-1"/><path fill="#231F20" fill-opacity=".9" d="M11.993 8q.007.082.007.166C12 9.179 11.194 10 10.2 10a1.81 1.81 0 0 1-1.77-1.5h-.86A1.81 1.81 0 0 1 5.8 10C4.806 10 4 9.179 4 8.166q0-.084.007-.166z"/><path fill="#6E6E6E" fill-opacity=".5" d="M6.575 1c.733 0 1.053.035 1.444-.008C8.47.942 8.7.999 9.5 1Q11 1 12 6l3 2H1l3-2q1-5 2.575-5"/><path fill="#231F20" fill-opacity=".9" d="M4.152 5h7.697q.077.32.151.667V6H4v-.333q.074-.346.152-.667"/><path fill="#40B6E0" d="M3 10.5h1.5L8 13.9l3.5-3.4H13l-1 3 2 1.5H2l2-1.5z"/></g></svg>