<svg width="13" height="13" viewBox="0 0 13 13" fill="none" xmlns="http://www.w3.org/2000/svg"><path d="m9.388 4.27 2.186-2.187a.51.51 0 0 1 .87.36v5.903a3.057 3.057 0 0 1-3.056 3.056H6.33a3.057 3.057 0 0 1-3.057-3.056V2.443a.51.51 0 0 1 .87-.36L6.33 4.269z" stroke="#A68B6C" stroke-linecap="round" style="stroke-width:1.01908"/><path d="M8.052 9.143a.254.254 0 0 1-.385 0l-.766-.884a.254.254 0 0 1 .194-.422h1.532a.254.254 0 0 1 .193.422Z" fill="#A68B6C" style="stroke-width:1.01908"/><circle cx="5.567" cy="6.563" fill="#A68B6C" style="stroke-width:1.01908" r=".764"/><circle cx="10.153" cy="6.563" fill="#A68B6C" style="stroke-width:1.01908" r=".764"/><path d="M.438 4.195h2.896M1.162 7.327h2.172m-2.172 3.132h2.534" stroke="#A68B6C" stroke-linecap="round" style="stroke-width:.86944"/></svg>