<svg width="16" height="16" viewBox="0 0 16 16" fill="none" xmlns="http://www.w3.org/2000/svg"><path d="m11.5 5.5 2.146-2.146a.5.5 0 0 1 .854.353V9.5a3 3 0 0 1-3 3h-3a3 3 0 0 1-3-3V3.707a.5.5 0 0 1 .854-.353L8.5 5.5z" stroke="#A68B6C" stroke-linecap="round"/><path d="M10.189 10.282a.25.25 0 0 1-.378 0l-.752-.868A.25.25 0 0 1 9.25 9h1.503a.25.25 0 0 1 .189.414z" fill="#A68B6C"/><circle cx="7.75" cy="7.75" r=".75" fill="#A68B6C"/><circle cx="12.25" cy="7.75" r=".75" fill="#A68B6C"/><path d="M1.5 5.5h4m-3 3h3m-3 3H6" stroke="#A68B6C" stroke-linecap="round"/></svg>