<svg width="16" height="16" viewBox="0 0 400 400" xmlns="http://www.w3.org/2000/svg"><g fill-rule="evenodd"><path d="M214.694 17.722c-.853.085-1.552.309-1.552.498s-.565.344-1.255.344c-.691 0-1.358.164-1.483.365-.124.2-.627.365-1.117.365s-.89.164-.89.365c0 .2-.329.365-.73.365-.402 0-.73.165-.73.365 0 .201-.33.365-.73.365-.402 0-.731.165-.731.365 0 .201-.329.366-.73.366-.402 0-.73.164-.73.365 0 .2-.329.365-.73.365-.402 0-.73.164-.73.365 0 .2-.293.365-.65.365-.357 0-.887.328-1.176.73-.29.401-.702.73-.915.73-.215 0-.959.487-1.654 1.08-.696.595-1.405 1.088-1.575 1.096-.446.02-5.01 4.702-6.067 6.22-.49.703-1.185 1.544-1.545 1.869-.36.325-.656.822-.656 1.106 0 .283-.329.752-.73 1.041-.402.29-.73.82-.73 1.176 0 .358-.165.65-.366.65-.2 0-.365.328-.365.73 0 .401-.133.73-.296.73-.164 0-.523.575-.799 1.278-.276.703-.635 1.278-.798 1.278-.164 0-.297.41-.297.912s-.164.913-.365.913c-.201 0-.365.41-.365.913 0 .502-.165.912-.365.912-.201 0-.365.565-.365 1.256 0 .69-.165 1.358-.365 1.482-.201.124-.366.86-.366 1.634 0 .775-.156 1.463-.345 1.53-.191.067-.378 1.564-.416 3.325-.037 1.763-.207 3.29-.377 3.395-.17.105-.313 25.215-.318 55.8l-.01 55.61 1.143.228c4.223.845 12.176.014 24.783-2.586 1.506-.311 3.395-.699 4.198-.863.804-.164 2.118-.455 2.921-.647.803-.192 2.2-.517 3.103-.722 1.606-.364 6.216-1.577 8.762-2.305a34.923 34.923 0 0 1 2.19-.55 11.131 11.131 0 0 0 1.643-.481c.402-.163 1.47-.505 2.373-.76.903-.255 2.92-.872 4.481-1.37 3.39-1.084 3.301-1.147 3.627 2.603.556 6.411 1.88 15.719 3.225 22.695 1.184 6.143 1.561 8.003 2.216 10.952 2.503 11.259 3.162 13.455 5.458 18.19l1.21 2.492 1.3-.24c.715-.133 1.354-.392 1.421-.576.068-.184.437-.335.822-.335.385 0 .7-.134.7-.299 0-.164.82-.522 1.825-.796 1.004-.274 1.825-.631 1.825-.796 0-.165.329-.299.73-.299.402 0 .73-.164.73-.365 0-.2.319-.365.709-.365.39 0 .81-.164.934-.365.124-.201.627-.365 1.117-.365s.891-.124.891-.276c0-.152.534-.49 1.187-.755.652-.263 1.472-.631 1.82-.818.35-.188.883-.342 1.187-.342.304 0 .552-.164.552-.365 0-.2.329-.365.73-.365.402 0 .73-.164.73-.365 0-.2.329-.365.73-.365.402 0 .73-.164.73-.365 0-.2.493-.365 1.096-.365.602 0 1.095-.164 1.095-.365 0-.201.263-.365.584-.365.32 0 1.183-.263 1.917-.585.733-.322 1.66-.719 2.062-.882l1.917-.782c.653-.267 1.187-.609 1.187-.761 0-.152.318-.276.708-.276.39 0 .81-.164.934-.365.124-.2.627-.365 1.117-.365s.891-.164.891-.365c0-.2.329-.365.73-.365.402 0 .73-.134.73-.3 0-.164.822-.522 1.826-.795 1.004-.274 1.825-.632 1.825-.796 0-.165.329-.3.73-.3.402 0 .73-.164.73-.365 0-.2.329-.365.73-.365.402 0 .73-.164.73-.365 0-.2.401-.365.891-.365s.993-.164 1.118-.365c.124-.2.554-.365.955-.365.402 0 .629-.164.505-.365-.128-.206.171-.365.687-.365.502 0 1.014-.164 1.138-.365.124-.201.545-.365.935-.365s.708-.165.708-.365c0-.201.329-.365.73-.365.402 0 .73-.165.73-.365 0-.201.319-.366.709-.366.39 0 .81-.164.934-.365.124-.2.627-.365 1.117-.365s.891-.164.891-.365c0-.2.329-.365.73-.365.402 0 .73-.164.73-.365 0-.2.249-.365.552-.365.304 0 .838-.152 1.187-.339.734-.391 1.886-.824 2.57-.964.261-.054.836-.33 1.278-.614.44-.285 1.582-.745 2.536-1.023.954-.278 1.734-.633 1.734-.79 0-.157.329-.286.73-.286.402 0 .73-.164.73-.365 0-.2.411-.365.913-.365s.913-.164.913-.365c0-.2.41-.365.912-.365s.913-.164.913-.365c0-.2.315-.365.7-.365.384 0 .757-.172.827-.382.07-.21.494-.409.943-.442.449-.034.816-.191.816-.349 0-.158.23-.287.513-.287.442 0 1.604-.504 4.32-1.871.348-.177.882-.32 1.186-.32.304 0 .552-.164.552-.365 0-.2.329-.365.73-.365.402 0 .73-.164.73-.365 0-.2.312-.365.693-.365.381 0 1.63-.493 2.775-1.095 1.146-.603 2.404-1.096 2.797-1.096.393 0 .613-.164.49-.365-.125-.2.084-.365.464-.365.378 0 1.497-.41 2.485-.91.987-.502 2.042-.918 2.344-.925.3-.007 1.528-.5 2.728-1.097 1.2-.596 2.473-1.083 2.83-1.083.356 0 .648-.165.648-.365 0-.201.318-.366.708-.366.39 0 .81-.164.935-.365.124-.2.544-.365.934-.365s.708-.164.708-.365c0-.2.162-.365.36-.365.478 0 4.059-2.187 4.751-2.902.302-.311.777-.615 1.056-.675.28-.06.938-.553 1.46-1.095.524-.543 1.399-1.216 1.944-1.498.545-.28.905-.65.8-.82-.106-.172-.02-.311.192-.311.495 0 2.612-2.209 2.417-2.523-.08-.132.352-.638.963-1.124.61-.487 1.544-1.534 2.072-2.328.528-.794 1.246-1.869 1.594-2.389.659-.983 1.474-2.592 1.526-3.015.018-.133.155-.366.305-.516.15-.15.274-.575.274-.944 0-.368.164-.669.365-.669.2 0 .365-.328.365-.73 0-.402.165-.73.365-.73.201 0 .365-.493.365-1.095 0-.603.165-1.095.365-1.095.201 0 .366-.493.366-1.096 0-.602.164-1.095.365-1.095.2 0 .365-.575.365-1.278 0-.702.164-1.277.365-1.277.202 0 .365-.974.365-2.19 0-1.217.162-2.191.365-2.191.227 0 .365-2.062.365-5.454 0-3.243-.148-5.547-.365-5.68-.2-.125-.365-1.13-.365-2.234 0-1.246-.139-1.922-.365-1.783-.22.136-.365-.354-.365-1.234 0-.804-.165-1.562-.365-1.686-.201-.124-.365-.718-.365-1.32 0-.638-.153-1.002-.366-.87-.2.124-.365-.08-.365-.454 0-.833-.811-2.643-1.186-2.647-.15-.002-.274-.32-.274-.706 0-.388-.258-.963-.574-1.278-.315-.316-.463-.574-.329-.574.136 0-.329-.575-1.032-1.278-.703-.703-1.458-1.278-1.68-1.278-.22 0-.4-.164-.4-.365 0-.2-.247-.365-.548-.365-.301 0-.548-.164-.548-.365 0-.2-.41-.365-.913-.365-.502 0-.912-.164-.912-.365 0-.2-.657-.365-1.46-.365-.804 0-1.46-.164-1.46-.365 0-.2-.904-.365-2.009-.365-1.104 0-2.008.164-2.008.365 0 .2-.657.365-1.46.365-.803 0-1.46.164-1.46.365 0 .2-.324.365-.72.365-.394 0-1.303.329-2.018.73-.715.402-1.542.73-1.836.73-.295 0-.537.165-.537.365 0 .201-.319.366-.708.366-.39 0-.81.164-.935.365-.124.2-.636.365-1.138.365-.516 0-.815.158-.687.365.124.2-.033.365-.349.365-.316 0-.9.164-1.299.365l-1.45.73c-.4.2-.975.365-1.278.365-.304 0-.553.164-.553.365 0 .2-.328.365-.73.365-.401 0-.73.165-.73.365 0 .201-.248.365-.552.365-.304 0-.838.143-1.187.316-.841.42-2.987 1.172-4.01 1.407-.453.104-.822.333-.822.51 0 .178-.195.323-.433.323-.237 0-1.182.343-2.099.763a58.16 58.16 0 0 1-2.397 1.043c-.401.154-1.443.633-2.316 1.062-.872.43-1.817.783-2.1.783-.281 0-.512.164-.512.365 0 .2-.42.365-.935.365-.529 0-.836.158-.708.365.128.206-.171.365-.687.365-.502 0-1.014.164-1.138.365-.124.2-.545.365-.935.365s-.708.164-.708.365c0 .2-.4.365-.89.365s-.994.164-1.118.365c-.124.2-.545.365-.934.365-.39 0-.709.165-.709.365 0 .201-.328.365-.73.365-.401 0-.73.146-.73.325 0 .18-.74.543-1.643.81-.903.266-1.643.613-1.643.77 0 .157-.328.286-.73.286-.401 0-.73.164-.73.365 0 .2-.4.365-.89.365s-.994.164-1.118.365c-.124.2-.545.365-.934.365-.39 0-.709.164-.709.365 0 .2-.328.365-.73.365-.401 0-.73.164-.73.365 0 .201-.41.365-.913.365-.501 0-.912.175-.912.387 0 .213-.135.303-.3.201-.165-.102-.78.064-1.37.37-.587.305-1.068.53-1.068.503 0-.13-2.361.853-3.997 1.662-.993.492-2.02.893-2.281.893-.262 0-.476.164-.476.365 0 .201-.255.365-.565.365-.311 0-1.246.329-2.076.73-.832.402-1.727.73-1.99.73-.265 0-.48.165-.48.366 0 .2-.296.365-.657.365-.816 0-2.622.816-2.626 1.186-.002.15-.321.274-.71.274-.39 0-.811.164-.935.365-.125.2-.627.365-1.118.365-.49 0-.89.164-.89.365 0 .2-.329.365-.73.365-.402 0-.73.164-.73.365 0 .201-.33.365-.73.365-.402 0-.73.165-.73.365 0 .201-.32.365-.71.365-.389 0-.81.165-.934.366-.124.2-.627.365-1.117.365s-.89.164-.89.365c0 .2-.33.365-.73.365-.402 0-.73.134-.73.3 0 .163-.822.521-1.826.795s-1.825.632-1.825.796c0 .165-.33.3-.73.3-.402 0-.73.163-.73.364 0 .201-.3.365-.666.365-.365 0-1.309.313-2.097.697-.787.383-1.556.62-1.708.526-.152-.094-.276.003-.276.216 0 .212-.215.387-.479.387s-1.159.328-1.99.73c-.83.401-1.765.73-2.077.73-.31 0-.565.164-.565.365 0 .2-.318.365-.708.365-.39 0-.81.164-.934.365-.125.2-.627.365-1.118.365-.49 0-.89.164-.89.365 0 .201-.319.365-.709.365-.39 0-.81.165-.934.365-.124.201-.545.365-.935.365s-.708.165-.708.366c0 .2-.493.365-1.095.365-.603 0-1.095.164-1.095.365 0 .2-.319.365-.709.365-.39 0-.81.164-.934.365-.124.2-.627.365-1.117.365s-.891.164-.891.365c0 .2-.493.365-1.095.365-.603 0-1.095.164-1.095.365 0 .2-.493.365-1.096.365-.602 0-1.095.164-1.095.365 0 .201-.4.365-.89.365s-.994.165-1.118.365c-.627 1.015-1.643.356-1.643-1.065 0-.786-.157-1.484-.352-1.551-.204-.07-.37-2.748-.396-6.42-.025-3.496-.192-6.297-.376-6.297-.197 0-.37-23.62-.427-58.137-.092-55.72-.16-59.803-1.003-60.084-.204-.067-.278-.274-.164-.457.113-.183.032-.334-.18-.334-.213 0-.387-.251-.387-.558 0-.619-3.051-3.823-3.64-3.823a.371.371 0 0 1-.376-.365c0-.2-.233-.365-.517-.365-.284 0-.585-.205-.67-.456-.15-.458-12.537-.75-16.245-.386m-3.377 168.652c-9.657 1.06-13.624 14.169-6.335 20.932 2.7 2.504 4.683 3.284 8.35 3.284 9.832 0 15.62-11.036 9.994-19.055-2.68-3.82-7.063-5.705-12.009-5.16" fill="#bbbac3"/><path d="M86.463 128.826c0 .194-1.057.354-2.35.354-1.294 0-2.454.164-2.578.365-.124.2-.873.365-1.665.365-.791 0-1.438.164-1.438.365 0 .2-.575.365-1.278.365-.703 0-1.278.164-1.278.365 0 .201-.482.365-1.073.365-.59 0-1.183.176-1.315.39-.132.215-.47.302-.748.195-.28-.106-.703.013-.94.268-.239.254-.897.394-1.464.311-.567-.083-1.03-.004-1.03.177 0 .182-.368.357-.817.39-.449.034-.873.233-.943.443-.07.21-.524.382-1.009.382-.568 0-.883.21-.883.587 0 .381-.198.51-.57.367-.314-.12-1.176.088-1.917.462-3.75 1.899-4.778 2.513-4.563 2.728.13.13-.02.237-.331.237-.803 0-2.511.937-2.226 1.222.13.131-.037.238-.37.238-.336 0-.61.164-.61.365 0 .2-.215.365-.479.365-.263 0-.831.329-1.262.73-.43.402-.971.73-1.2.73-.23 0-.876.493-1.44 1.096-.562.602-1.201 1.095-1.42 1.095-.218 0-1.384.996-2.59 2.215-1.208 1.218-2.196 2.138-2.196 2.044 0-.094-.82.634-1.826 1.617-1.005.983-1.819 1.878-1.81 1.986.008.11-.65.836-1.46 1.616-.811.78-1.475 1.593-1.475 1.81 0 .217-.164.394-.365.394-.2 0-.365.18-.365.402 0 .22-.51.877-1.133 1.46-.625.582-.994 1.063-.822 1.07.172.006.025.178-.327.383-.351.204-.638.574-.638.821s-.32.68-.711.961c-.391.281-.64.627-.553.768.087.14-.168.67-.566 1.177-.4.508-.726 1.031-.726 1.165 0 .133-.205.47-.456.75-1.136 1.267-1.37 1.635-1.37 2.162 0 .31-.143.563-.319.563-.298 0-.932 2.04-.825 2.647.028.15-.197.274-.498.274s-.548.3-.548.669c0 .368-.123.793-.274.943-.15.151-.287.384-.304.517-.017.134-.25.737-.517 1.339s-.5 1.205-.516 1.339c-.018.133-.144.355-.28.492-.137.137-.16.479-.053.76.109.282.015.512-.207.512-.223 0-.404.4-.404.89s-.164.994-.365 1.118c-.201.124-.365.709-.365 1.3 0 .59-.165 1.073-.365 1.073-.201 0-.365.575-.365 1.278 0 .702-.165 1.277-.366 1.277-.2 0-.365.657-.365 1.46 0 .804-.164 1.46-.365 1.46-.2 0-.365.822-.365 1.826s-.14 1.826-.31 1.826c-.17 0-.343 1.19-.385 2.646-.042 1.456-.231 2.803-.421 2.994-.474.477-.454 14.073.021 14.073.213 0 .365 1.217.365 2.92 0 1.705.153 2.921.365 2.921.201 0 .365.73.365 1.621 0 .892.165 1.723.365 1.848.201.124.365.79.365 1.482 0 .69.165 1.256.365 1.256.201 0 .366.565.366 1.255 0 .691.164 1.358.365 1.483.2.124.365.709.365 1.3 0 .59.133 1.073.295 1.073.164 0 .507.82.765 1.826.258 1.004.598 1.745.758 1.646.16-.098.28.025.268.273-.037.769.547 2.826.802 2.826.134 0 .27.367.303.816.034.449.233.873.443.943.21.07.381.442.381.826 0 .386.165.7.365.7.201 0 .366.269.366.596 0 .328.354.903.785 1.278.465.404.592.682.31.682s-.155.278.31.682c.43.375.785.936.785 1.247 0 .31.151.62.338.688.185.066.39.367.456.669.065.3.406.813.758 1.138.35.325.638.776.638 1.004 0 .227.165.413.365.413.201 0 .366.246.366.548 0 .3.128.547.286.547.157 0 .583.502.946 1.116.362.614 1.219 1.676 1.903 2.36.685.686 1.245 1.339 1.245 1.453 0 .114.575.782 1.278 1.485.703.702 1.278 1.436 1.278 1.63 0 .194.262.353.581.353.32 0 .668.327.772.726.104.4.335.636.513.526.178-.11.324-.068.324.095.001.61 1.754 2.303 2.385 2.303.361 0 .556.102.432.227-.301.3.654 1.234 1.264 1.235.265 0 .811.496 1.213 1.1.401.605 1.255 1.293 1.897 1.526.642.234 1.09.549.999.699-.093.15.142.371.522.491s1.162.625 1.74 1.121c.576.496 1.253.902 1.504.903.251 0 .457.146.457.326 0 .179.41.428.912.554.502.126.913.39.913.587 0 .197.214.358.475.358.671 0 2.44.859 2.443 1.187.002.15.331.273.733.273.401 0 .73.165.73.366 0 .2.328.365.73.365.401 0 .73.164.73.365 0 .2.329.365.73.365.402 0 .73.164.73.365 0 .2.493.365 1.096.365.602 0 1.095.164 1.095.365 0 .2.328.365.73.365.401 0 .73.164.73.365 0 .2.493.365 1.095.365.603 0 1.095.164 1.095.365 0 .201.503.365 1.118.365.65 0 1.022.153.89.365-.131.213.24.365.891.365.614 0 1.117.165 1.117.366 0 .2.647.365 1.439.365.79 0 1.54.164 1.664.365.124.2.965.365 1.869.365.903 0 1.567.123 1.474.274-.094.15.636.319 1.621.374.986.055 2.213.26 2.727.456.515.196 2.857.356 5.204.356 2.348 0 4.785.148 5.415.329.631.181 1.287.192 1.459.024.17-.167 2.2-.394 4.508-.504 5.842-.28 8.762-.593 8.762-.939 0-.161.657-.393 1.46-.514l2.92-.442c.804-.122 1.461-.368 1.461-.548 0-.18.493-.327 1.095-.327.603 0 1.096-.164 1.096-.365 0-.2.492-.365 1.095-.365.602 0 1.095-.164 1.095-.365 0-.2.493-.365 1.095-.365.603 0 1.095-.164 1.095-.365 0-.2.397-.365.883-.365.485 0 .94-.172 1.01-.381.069-.21.493-.41.942-.443.45-.034.816-.19.816-.349 0-.158.329-.287.73-.287.402 0 .73-.165.73-.365 0-.201.319-.365.709-.365.39 0 .81-.165.934-.365.124-.201.545-.366.935-.366s.708-.164.708-.365c0-.2.329-.365.73-.365.402 0 .73-.128.73-.285 0-.157.37-.316.824-.354.453-.037 1.479-.386 2.28-.776.8-.389 1.58-.63 1.732-.538.151.094.275-.003.275-.215 0-.213.329-.387.73-.387.402 0 .73-.164.73-.365 0-.201.411-.365.913-.365s.913-.165.913-.365c0-.201.248-.365.552-.365.304 0 .838-.154 1.187-.342a22.973 22.973 0 0 1 1.794-.807c.638-.257 1.101-.56 1.03-.677-.071-.116.31-.246.848-.29.538-.045 1.032-.244 1.099-.443.068-.2.437-.362.821-.362.386 0 .7-.164.7-.365 0-.2.493-.365 1.096-.365.602 0 1.095-.164 1.095-.365 0-.201.328-.365.73-.365.402 0 .73-.165.73-.365 0-.201.296-.365.657-.365.816 0 2.622-.816 2.626-1.187.002-.15.413-.274.915-.274s.913-.164.913-.365c0-.2.319-.365.708-.365.39 0 .826-.19.97-.421.152-.246.1-.324-.123-.185-.21.13-.483-.022-.604-.338-.557-1.452-.235-93.991.327-94.207.301-.115.547-.356.547-.536 0-.18-.246-.326-.547-.326-.301 0-.548-.174-.548-.387 0-.213-.164-.285-.365-.16-.2.124-.365.04-.365-.188 0-.503-.91-1.455-1.392-1.455-.192 0-.642-.452-1-1.004-.736-1.135-1.947-2.282-2.41-2.282-.17 0-.309-.162-.309-.36 0-.439-.873-1.563-2.464-3.172-.653-.66-1.187-1.357-1.187-1.548 0-.19-.328-.45-.73-.579-.401-.127-.73-.484-.73-.794 0-.35-.207-.482-.547-.351-.344.131-.548-.004-.548-.36 0-.314-.327-.657-.727-.76-.398-.105-.65-.311-.559-.459.091-.148-.24-.485-.735-.75-.494-.266-.9-.619-.9-.786 0-.166-.235-.303-.523-.303-.287 0-.627-.329-.754-.73-.128-.402-.467-.73-.754-.73-.288 0-1.132-.575-1.877-1.277-.744-.703-1.648-1.37-2.009-1.485-.36-.114-.654-.37-.654-.57 0-.2-.165-.26-.368-.135-.201.125-.466-.03-.587-.344-.12-.314-.447-.57-.727-.57-.28 0-.508-.164-.508-.365 0-.2-.329-.365-.73-.365-.402 0-.73-.144-.73-.32 0-.178-.493-.526-1.096-.775-.602-.25-1.095-.598-1.095-.775 0-.176-.329-.32-.73-.32-.402 0-.733-.206-.736-.457-.004-.341-.083-.334-.314.031-.253.397-.347.388-.515-.051-.245-.638-2.278-1.714-3.237-1.714-.371 0-.674-.164-.674-.365 0-.2-.319-.365-.708-.365-.39 0-.818-.175-.95-.39-.133-.214-.46-.306-.729-.203-.267.103-.54.03-.602-.161-.064-.192-.445-.416-.845-.5-.402-.083-1.449-.41-2.327-.727-.879-.315-2.162-.575-2.85-.575-.744 0-1.162-.148-1.029-.365.135-.217-.293-.365-1.052-.365-.703 0-1.379-.164-1.503-.365-.124-.2-.84-.365-1.592-.365-.75 0-1.521-.15-1.712-.336-.796-.77-23.164-1.492-23.164-.748m149.861 31.832c-.602.203-1.38.514-1.73.69a3.54 3.54 0 0 1-1.346.323c-.393 0-.815.164-.94.365-.124.2-.699.365-1.277.365-.579 0-1.142.145-1.251.323-.11.178-.654.411-1.209.518-.555.107-1.665.383-2.469.614-.803.23-2.076.572-2.829.76l-2.738.681c-.753.188-2.026.519-2.83.736-1.628.44-2.479.63-8.76 1.957-4.782 1.01-8.816 1.78-12.778 2.436-1.406.234-3.446.577-4.534.763-3.393.582-9.222.431-10.262-.265-.496-.332-.697-.382-.446-.11.755.818.657 75.833-.1 76.914-.928 1.325-.41 68.681.545 70.74.186.402.424 1.47.528 2.373.39 3.372.664 4.756.982 4.952.18.112.327.676.327 1.254 0 .58.164 1.154.365 1.278.2.124.365.71.365 1.3 0 .59.164 1.073.365 1.073.2 0 .365.493.365 1.095 0 .603.164 1.096.365 1.096.2 0 .365.4.365.89s.164.993.365 1.117c.201.125.365.617.365 1.096 0 .478.165.97.365 1.095.201.124.365.545.365.934 0 .39.165.709.366.709.2 0 .365.328.365.73 0 .401.164.73.365.73.2 0 .365.328.365.73 0 .402.164.73.365.73.2 0 .365.329.365.73 0 .402.164.73.365.73.2 0 .365.247.365.548 0 .301.164.548.365.548.2 0 .365.328.365.73 0 .401.164.73.365.73.201 0 .365.205.365.456.001.251.412.934.913 1.517.502.583.913 1.257.913 1.495 0 .24.325.728.722 1.087.396.36.64.785.54.947-.1.16.192.672.647 1.138.456.464 1.24 1.46 1.741 2.214.502.753 1.2 1.462 1.552 1.576.351.113.639.414.639.669 0 .583 6.727 7.52 7.292 7.52.23 0 .316.164.192.365-.124.2.122.365.547.365.426 0 .672.164.548.365-.124.2-.069.365.124.365s.905.534 1.584 1.186c1.67 1.607 3.688 3.175 4.133 3.212.2.017 1.104.59 2.008 1.274 1.66 1.256 5.062 2.974 5.567 2.812.15-.048.274.077.274.277 0 .201.329.365.73.365.402 0 .73.165.73.366 0 .2.315.365.7.365.384 0 .754.123.822.273.201.456 3.244 1.917 3.989 1.917.382 0 .695.164.695.365 0 .2.411.365.913.365s.913.164.913.365c0 .201.41.365.912.365s.913.146.913.325c0 .18.575.426 1.278.548l2.555.445c.703.123 1.278.369 1.278.548 0 .179.706.325 1.57.325.863 0 1.764.194 2 .43.925.925 29.289.825 28.717-.1-.112-.182.709-.33 1.825-.33s2.03-.165 2.03-.365c0-.201.565-.365 1.256-.365.69 0 1.358-.165 1.482-.365.124-.201.71-.366 1.3-.366.59 0 1.073-.164 1.073-.365 0-.2.41-.365.913-.365.502 0 .912-.164.912-.365 0-.2.534-.368 1.187-.37.9-.005 1.054-.092.639-.36-.416-.268-.261-.355.638-.36.653-.002 1.187-.17 1.187-.37 0-.2.315-.365.7-.365.385 0 1.781-.574 3.103-1.275 1.322-.701 2.403-1.2 2.403-1.106 0 .093.598-.238 1.329-.733.731-.496 1.458-.902 1.617-.902.347 0 4.703-2.861 5.386-3.537.265-.263.629-.479.809-.479.18 0 .901-.575 1.604-1.277.703-.703 1.445-1.278 1.647-1.278.484 0 10.242-9.664 10.242-10.144 0-.201.74-1.15 1.643-2.106.904-.956 1.643-1.884 1.643-2.06 0-.179.329-.676.73-1.107.402-.43.73-1 .73-1.262 0-.264.165-.48.365-.48.201 0 .368-.369.37-.82.005-.665.074-.717.36-.275.287.443.356.391.36-.273.003-.452.17-.822.37-.822.201 0 .366-.253.366-.563 0-.31.328-.915.73-1.346.401-.43.73-1 .73-1.262 0-.264.131-.48.292-.48.16 0 .512-.616.781-1.368.27-.753.59-1.452.712-1.552.488-.4 1.136-1.856 1.136-2.55 0-.405.164-.736.365-.736.2 0 .365-.41.365-.912s.164-.913.365-.913c.2 0 .365-.483.365-1.073s.164-1.176.365-1.3c.2-.124.365-.545.365-.935s.192-.708.426-.708c.234 0 .331-.095.216-.21-.115-.116-.044-.732.158-1.369.204-.638.52-1.898.706-2.802.185-.903.436-2.053.56-2.555.122-.502.295-2.104.384-3.56.09-1.455.314-2.646.5-2.646.185 0 .336-1.926.336-4.308 0-2.94.145-4.464.456-4.8.365-.393.365-.44 0-.233-.251.141-.456.097-.456-.099s.205-.43.456-.521c.365-.132.365-.32 0-.938-.3-.508-.456-2.343-.456-5.342 0-2.513-.142-4.568-.315-4.568-.174 0-.425-1.11-.558-2.464-.29-2.95-.263-2.793-1.15-6.572-.39-1.656-.833-3.011-.986-3.011-.152 0-.277-.493-.277-1.096 0-.602-.164-1.095-.365-1.095-.2 0-.365-.4-.365-.89s-.164-.994-.365-1.118c-.201-.124-.365-.545-.365-.934 0-.39-.165-.709-.365-.709-.201 0-.365-.41-.365-.912s-.165-.913-.366-.913c-.2 0-.365-.242-.365-.537 0-.294-.328-1.121-.73-1.836-.401-.714-.73-1.55-.73-1.858 0-.307-.164-.456-.365-.332-.2.124-.37-.071-.377-.435-.014-.807-.882-2.018-1.211-1.69-.13.131-.237-.037-.237-.375 0-.759-.704-2.044-1.552-2.833-.351-.327-.639-.826-.639-1.11 0-.283-.328-.752-.73-1.041-.401-.29-.73-.753-.73-1.03 0-.276-.493-.963-1.095-1.526-.603-.563-1.095-1.215-1.095-1.45 0-.235-.206-.647-.457-.915-.25-.268-1.766-1.9-3.366-3.625s-3.048-3.136-3.218-3.136c-.17 0-1.109-.822-2.086-1.826-.978-1.004-1.962-1.825-2.189-1.825-.225 0-.293-.19-.15-.422.158-.253.101-.322-.139-.173-.22.136-.98-.331-1.688-1.04-.707-.707-1.502-1.286-1.765-1.286-.263 0-.716-.328-1.005-.73-.29-.401-.828-.73-1.198-.73-.369 0-.585-.14-.479-.31.105-.17-.255-.54-.8-.82-.545-.282-1.074-.594-1.174-.694-.553-.555-8.343-4.493-9.152-4.628-.316-.052-1.055-.346-1.643-.652-.589-.307-1.43-.559-1.87-.56-.44-.001-.901-.167-1.025-.367-.124-.201-.71-.366-1.3-.366-.59 0-1.073-.164-1.073-.365 0-.2-.41-.365-.913-.365-.502 0-.913-.164-.913-.365 0-.2-.492-.365-1.095-.365-.602 0-1.095-.164-1.095-.365 0-.2-.318-.365-.708-.365-.39 0-.81-.164-.935-.365-.124-.2-.627-.365-1.117-.365s-.89-.164-.89-.365c0-.2-.33-.365-.73-.365-.402 0-.73-.165-.73-.365 0-.201-.293-.365-.65-.365-.358 0-.887-.329-1.176-.73-.29-.402-.711-.73-.937-.73-.226 0-.708-.33-1.071-.73-.363-.402-.845-.73-1.072-.73-.225 0-.647-.33-.936-.731-.29-.402-.742-.73-1.007-.73-.263 0-1.716-1.232-3.227-2.738-1.51-1.506-2.901-2.738-3.09-2.738-.188 0-.342-.263-.342-.584 0-.32-.493-1.044-1.096-1.607-.602-.563-1.095-1.22-1.095-1.464 0-.241-.727-1.12-1.616-1.952-2.86-2.677-5.105-8.427-7.134-18.284a387.64 387.64 0 0 0-1.086-4.95c-.429-1.907-.952-4.454-1.162-5.658a287.15 287.15 0 0 0-.732-4.016c-1.083-5.638-2.241-13.81-2.846-20.079-.461-4.774-.526-4.87-2.765-4.116m-137.083 7.22c0 .2.893.364 1.986.364 1.092 0 2.088.165 2.212.365.124.201.791.365 1.482.365s1.256.165 1.256.366c0 .2.493.365 1.095.365.603 0 1.096.164 1.096.365 0 .2.213.365.474.365.672 0 2.44.859 2.443 1.186.002.15.332.274.733.274.402 0 .73.164.73.365 0 .2.292.365.65.365.357 0 .875.314 1.153.698.276.385.806.64 1.175.569.37-.071.673.027.673.22 0 .484 2.27 2.505 2.83 2.518.25.006.456.175.456.376 0 .2.256.365.57.365.312 0 .467.164.342.365-.124.2-.086.365.083.365.17 0 .605.502.967 1.116.362.614 1.22 1.676 1.904 2.36.684.686 1.245 1.497 1.245 1.806 0 .307.137.56.303.56.167 0 .536.451.821 1.003.285.552.6 1.086.7 1.187.436.434 1.096 1.86 1.096 2.368 0 .304.146.552.325.552.179 0 .543.74.81 1.643.266.904.613 1.643.77 1.643.157 0 .286.657.286 1.46 0 .803.164 1.46.365 1.46.202 0 .365.974.365 2.19 0 1.217.162 2.191.365 2.191.217 0 .365 1.392.365 3.447 0 1.904-.163 3.547-.365 3.672-.2.124-.365.946-.365 1.825 0 .88-.164 1.702-.365 1.826-.201.124-.365.791-.365 1.482 0 .69-.165 1.256-.365 1.256-.201 0-.365.493-.365 1.095s-.165 1.095-.366 1.095c-.2 0-.365.329-.365.73 0 .402-.164.73-.365.73-.2 0-.365.32-.365.709 0 .39-.164.81-.365.934-.2.124-.365.626-.365 1.114 0 .493-.325 1.091-.73 1.344-.402.251-.73.708-.73 1.018 0 .308-.329.798-.73 1.088-.402.289-.73.655-.73.814 0 .662-7.04 7.947-7.68 7.947-.21 0-.714.31-1.12.688-.406.377-1.836 1.239-3.18 1.914-1.342.676-2.495 1.352-2.562 1.504-.068.151-.61.275-1.208.275-.632 0-.993.154-.861.365.134.217-.293.365-1.052.365-.703 0-1.38.165-1.504.365-.124.201-.676.365-1.226.365-.55 0-1.174.174-1.386.386-.507.507-13.037.487-13.207-.021-.067-.201-.857-.365-1.756-.365-.997 0-1.546-.142-1.408-.365.128-.206-.172-.365-.687-.365-.502 0-1.014-.164-1.139-.365-.124-.2-.718-.365-1.32-.365-.637 0-1.001-.152-.87-.365.128-.207-.179-.365-.708-.365-.514 0-.935-.164-.935-.365 0-.2-.246-.365-.547-.365-.302 0-.548-.164-.548-.365 0-.2-.329-.365-.73-.365-.402 0-.73-.153-.73-.339 0-.186-.657-.629-1.46-.983-.804-.354-1.46-.859-1.46-1.121 0-.263-.262-.478-.58-.478-.319 0-1.49-.944-2.604-2.099-1.114-1.154-2.168-2.058-2.341-2.008-.175.05-.317-.165-.317-.478 0-.313-.15-.476-.335-.361-.185.114-.444-.289-.578-.895-.133-.606-.401-1.003-.596-.882-.195.12-.546-.289-.78-.91-.234-.621-.555-1.128-.712-1.128-.156 0-.285-.247-.285-.548 0-.301-.164-.548-.365-.548-.2 0-.365-.328-.365-.73 0-.401-.164-.73-.365-.73-.2 0-.365-.328-.365-.73 0-.402-.138-.73-.306-.73-.41 0-1.154-1.675-1.154-2.594 0-.404-.13-.655-.288-.557-.157.098-.324-.263-.368-.8-.044-.538-.243-1.032-.442-1.099-.2-.068-.362-.775-.362-1.573 0-.875-.145-1.362-.365-1.226-.232.143-.365-.848-.365-2.716 0-1.719-.152-2.943-.366-2.943-.201 0-.362-.939-.36-2.099.004-1.49.11-1.94.36-1.551.246.38.356-.32.36-2.282.003-1.64.159-2.83.37-2.83.201 0 .366-.657.366-1.46 0-.803.164-1.46.365-1.46.2 0 .365-.4.365-.89s.164-.994.365-1.118c.2-.124.365-.636.365-1.138 0-.604.144-.823.427-.649.29.179.35.063.189-.358-.148-.384-.033-.7.303-.828.298-.114.541-.6.541-1.082 0-.48.14-.873.31-.873.17 0 .601-.647.958-1.439.357-.79.889-1.531 1.18-1.643.294-.113.465-.407.382-.657-.083-.249.234-.754.704-1.124.47-.37.768-.811.663-.981-.105-.17.14-.414.544-.543.404-.129.735-.474.735-.769 0-.294.246-.628.546-.743.3-.115.455-.356.343-.536-.111-.18-.028-.327.185-.327.212 0 .468 0 .568-.002.1 0 .551-.318 1.004-.707l1.7-1.46c.482-.413 1.004-.751 1.16-.751.156 0 .505-.206.775-.457 1.08-1.001 2.848-2.099 3.379-2.099.31 0 .562-.164.562-.365 0-.2.339-.365.752-.365.414 0 .65-.164.526-.365-.132-.214.246-.365.913-.365.666 0 1.045-.152.912-.365-.131-.213.24-.365.891-.365.614 0 1.117-.165 1.117-.365 0-.201.575-.366 1.278-.366.703 0 1.278-.164 1.278-.365 0-.2.821-.365 1.825-.365s1.825-.164 1.825-.365c0-.22 1.582-.365 4.016-.365s4.016.144 4.016.365m119.664 19.114c11.995 6.155 7.84 24.096-5.58 24.096-14.441 0-17.8-19.798-4.197-24.734 2.582-.936 7.31-.628 9.777.638m42.589 86.424c-.113.183.543.332 1.458.332.916 0 1.665.165 1.665.365 0 .201.493.365 1.095.365.603 0 1.096.165 1.096.366 0 .2.492.365 1.095.365.602 0 1.095.164 1.095.365 0 .2.315.365.7.365.384 0 .754.123.821.274.067.15.943.681 1.947 1.18 1.004.498 2.091 1.196 2.416 1.551.325.355.736.645.913.645.293.001.755.36 3.334 2.575.451.389.821.633.821.543 0-.09.41.218.913.684.502.465.912.966.912 1.113 0 .148.493.728 1.096 1.292.602.563 1.095 1.213 1.095 1.445 0 .233.19.306.422.163.239-.148.323-.102.193.107-.125.202.256 1.13.847 2.061 1.336 2.109 2.554 4.604 2.554 5.236 0 .264.124.48.276.48.302 0 1.184 2.577 1.184 3.462 0 .304.164.553.365.553.2 0 .365.822.365 1.826 0 1.003.164 1.825.365 1.825.477 0 .496 10.845.02 11.013-.19.067-.385.893-.432 1.835-.048.943-.221 1.631-.386 1.531-.163-.101-.297.309-.297.91 0 .603-.164 1.197-.365 1.322-.201.124-.365.627-.365 1.117s-.165.89-.365.89c-.201 0-.365.329-.365.73 0 .402-.165.73-.365.73-.201 0-.366.33-.366.73 0 .402-.164.73-.365.73-.2 0-.365.33-.365.731 0 .402-.14.73-.31.73-.17 0-.605.657-.967 1.46-.363.804-.798 1.46-.969 1.46-.17 0-.31.165-.31.366 0 .2-.656 1.041-1.46 1.869-.803.828-1.46 1.677-1.46 1.886 0 .21-.092.29-.205.178-.112-.114-1.082.664-2.154 1.727-1.071 1.064-2.294 2.044-2.715 2.177-.422.134-.767.397-.767.584 0 .187-.215.34-.479.34-.263 0-.831.33-1.262.73-.431.402-1.037.73-1.346.73-.31 0-.563.165-.563.366 0 .2-.247.365-.548.365-.301 0-.548.164-.548.365 0 .2-.328.365-.73.365-.401 0-.73.164-.73.365 0 .2-.493.365-1.095.365-.603 0-1.095.146-1.095.325 0 .32-1.22.606-4.289 1.007-.852.111-1.454.358-1.336.55.134.216-1.826.28-5.203.173-6.327-.202-9.332-.532-9.047-.995.112-.18-.38-.33-1.095-.33s-1.3-.164-1.3-.365c0-.2-.4-.365-.89-.365s-.993-.164-1.117-.365c-.125-.2-.545-.365-.935-.365s-.708-.164-.708-.365c0-.2-.329-.365-.73-.365-.402 0-.73-.164-.73-.365 0-.2-.269-.365-.597-.365-.327 0-.861-.289-1.186-.642-.325-.352-1.042-.873-1.594-1.156-.553-.284-1.004-.653-1.004-.82 0-.166-.177-.303-.394-.303-.217 0-1.038-.67-1.825-1.49-.788-.82-1.445-1.272-1.461-1.004-.02.347-.089.328-.237-.061-.246-.65-1.925-2.718-1.925-2.373 0 .131-.41-.25-.912-.846-.502-.597-.913-1.276-.913-1.51 0-.234-.164-.324-.365-.2-.2.124-.365.045-.365-.176 0-.22-.329-.755-.73-1.185-.402-.431-.73-1-.73-1.263 0-.263-.165-.479-.365-.479-.201 0-.365-.328-.365-.73 0-.401-.165-.73-.365-.73-.201 0-.366-.329-.366-.73 0-.402-.164-.73-.365-.73-.2 0-.365-.329-.365-.73 0-.402-.137-.73-.304-.73-.168 0-.332-.206-.366-.457-.304-2.269-.56-3.437-.822-3.767-.172-.213-.345-.952-.387-1.642-.041-.69-.219-1.445-.394-1.679-1.842-2.451 1.701-22.012 4.176-23.06.158-.068.288-.314.289-.548 0-.234.492-1.001 1.094-1.704.601-.703 1.094-1.425 1.094-1.605.001-.395 6.947-7.157 7.35-7.157.157 0 .695-.41 1.197-.912.502-.502 1.167-.913 1.477-.913.31 0 .564-.164.564-.365 0-.2.329-.365.73-.365.402 0 .731-.123.733-.274.004-.327 1.772-1.186 2.443-1.186.261 0 .475-.165.475-.365 0-.201.329-.365.73-.365.402 0 .73-.165.73-.365 0-.201.657-.366 1.46-.366.804 0 1.46-.164 1.46-.365 0-.2.648-.365 1.44-.365.79 0 1.543-.17 1.673-.378.148-.24 2.37-.363 6.046-.334 3.386.028 5.727.187 5.607.38" fill="#A180E7"/><path d="M41.98 150.21c-.272.306-.421.63-.333.718.088.089.459-.169.824-.572.364-.403.514-.726.332-.719-.182.009-.552.265-.823.573m117.301 12.282c-.096.251-.131 21.485-.08 47.186l.094 46.729 1.224.116c.8.077 1.14-.017.983-.273-.148-.24.121-.391.691-.391.514 0 .935-.164.935-.365 0-.2.329-.365.73-.365.402 0 .73-.164.73-.365 0-.201.4-.365.891-.365.49 0 .993-.165 1.117-.365.124-.201.47-.365.769-.365.298 0 1.771-.575 3.272-1.278 1.5-.703 3.044-1.278 3.43-1.278.384 0 .802-.164.926-.365.124-.2.545-.365.934-.365.39 0 .709-.164.709-.365 0-.201.338-.365.752-.365.413 0 .65-.165.525-.365-.196-.318.544-.539 1.37-.408.15.023.273-.122.273-.322 0-.201.241-.366.535-.366 1.253 0 1.29-1.124 1.29-39.2 0-37.334-.009-37.794-.727-38.297-.4-.28-.606-.635-.456-.787.148-.152-.058-.242-.46-.199-1.597.17-4.23-.024-4.06-.298.099-.161-.425-.333-1.165-.381-.74-.05-1.4-.246-1.467-.439-.068-.192-.355-.349-.639-.349-.285 0-.517-.164-.517-.365 0-.2-.585-.365-1.3-.365-.773 0-1.207-.148-1.073-.365.128-.207-.184-.365-.724-.365-.85 0-2.935-1.154-3.516-1.948-.122-.168-.315-.25-.427-.182-.111.067-.627-.247-1.145-.697-.519-.45-.942-.647-.942-.44 0 .21-.393.085-.875-.275-.481-.361-.8-.78-.709-.93.092-.15-.259-.274-.779-.274s-1.024.205-1.119.456M94.86 277.756c0 .205.52.372 1.156.372 1.33 0 1.28-.16-.152-.503-.596-.143-1.004-.09-1.004.13m143.631-117.796c-.123.32-.107.771.037 1.003.143.232.4 1.923.569 3.76.563 6.085 1.73 14.363 2.838 20.131.193 1.004.522 2.811.732 4.016.21 1.204.733 3.75 1.162 5.658.43 1.908.918 4.136 1.086 4.95 1.969 9.563 5.264 18.05 7.008 18.05.183 0 .088-.246-.212-.546-.469-.47-1.75-2.965-2.812-5.478-.902-2.136-2.16-6.899-3.954-14.968-.655-2.949-1.032-4.809-2.216-10.952-1.346-6.976-2.67-16.284-3.225-22.695-.262-3.01-.603-3.998-1.013-2.93" fill="#A180E7"/><path d="M235.594 160.354c-1.405.463-3.295 1.05-4.198 1.303-.904.254-1.971.595-2.373.758-.402.163-1.14.38-1.643.48-.502.102-1.488.35-2.19.551-2.13.609-7.039 1.915-8.397 2.234-3.2.752-5.038 1.167-6.389 1.442-.803.162-2.692.55-4.198.861-10.993 2.268-15.704 2.894-20.687 2.75-3.231-.093-3.999-.023-3.698.339.46.55 6.833.628 9.812.117 1.088-.186 3.128-.529 4.534-.763 3.962-.657 7.996-1.426 12.777-2.436 6.282-1.327 7.133-1.516 8.762-1.957.803-.217 2.076-.548 2.83-.736.752-.187 1.984-.494 2.737-.68a108.62 108.62 0 0 0 2.83-.761c.803-.23 1.913-.507 2.468-.614.555-.107 1.098-.34 1.209-.518.11-.178.672-.323 1.25-.323.58 0 1.154-.164 1.279-.365.124-.2.546-.365.939-.365.392 0 .998-.148 1.347-.33.348-.181 1.34-.538 2.204-.794.863-.256 1.654-.6 1.756-.766.27-.437-.121-.361-2.96.573m-26.467 26c-13.604 4.935-10.244 24.733 4.197 24.733 13.42 0 17.575-17.94 5.58-24.096-2.467-1.266-7.195-1.574-9.777-.638m9.308 1.05c5.161 2.28 8.355 8.98 6.723 14.097-2.946 9.23-13.28 12.204-20.177 5.806-6.19-5.744-4.748-15.975 2.773-19.67 3.454-1.697 7.188-1.778 10.68-.234" fill="#A180E7"/></g></svg>