<svg xmlns="http://www.w3.org/2000/svg" width="13" height="13" viewBox="0 0 16 16"><path d="M14.732 1.442H1.318A1.104 1.13 0 0 0 .2 2.555v11.152a1.104 1.13 0 0 0 1.118 1.115h13.414a1.104 1.13 0 0 0 1.119-1.115V2.556a1.104 1.13 0 0 0-1.119-1.115zM2.435 9.248l2.237-2.231-2.237-2.231 1.12-1.116 3.353 3.346-3.354 3.345zm8.944 1.114H6.907V9.248h4.472z" fill="#666" style="stroke-width:1.07351"/><path d="m2.996 9.78-.533-.529 1.118-1.123 1.117-1.123-.213-.206c-.117-.112-.62-.61-1.117-1.106l-.903-.9L3 4.245c.294-.302.545-.544.556-.54.053.022 3.312 3.296 3.304 3.32-.016.045-3.272 3.285-3.303 3.285-.015 0-.267-.239-.56-.53zm3.938.016V9.25h4.422v1.096H6.934z" fill="#eee" style="stroke-width:1.07351"/></svg>