<svg width="16" height="16" viewBox="0 0 16 16" xmlns="http://www.w3.org/2000/svg"><path fill="none" d="M.035 1.167h16v16h-16z"/><g fill="none" fill-rule="evenodd"><path d="m12.337 5.644-1.455 2.038a4.5 4.5 0 0 0-6.879 5.485H1.325a7 7 0 0 1 11.012-7.523z" fill="#3592c4"/><path d="M13.535 6.835a6.97 6.97 0 0 1 1.5 4.332c0 .695-.1 1.366-.29 2h-2.678c.3-.602.468-1.282.468-2a4.49 4.49 0 0 0-.279-1.563zM7.01 13c.68.475 1.683.21 2.246-.593.826-1.18 3.033-6.286 3.033-6.286.22-.5.06-.618-.362-.254 0 0-4.3 3.638-5.128 4.82-.563.803-.467 1.838.211 2.313z" fill="#afb1b3"/></g></svg>