<svg xmlns="http://www.w3.org/2000/svg" width="13" height="13" viewBox="0 0 13 13" fill="none"><path fill-rule="evenodd" clip-rule="evenodd" d="m6.5.375 6.125 3.403L6.5 7.18.375 3.778 6.5.375zm4.9 5.444 1.225.681L6.5 9.903.375 6.5 1.6 5.82l4.9 2.722 4.9-2.723zm0 2.723 1.225.68L6.5 12.625.375 9.222l1.225-.68 4.9 2.722 4.9-2.722z" fill="#6E6E6E"/><path style="fill:#e6ce5f" d="M3.438 8.197A456.47 456.47 0 0 1 .4 6.5c0-.011 1.182-.664 1.202-.664.009 0 1.113.609 2.453 1.353 2.194 1.22 2.44 1.353 2.476 1.34.021-.01 1.122-.618 2.446-1.354A248.167 248.167 0 0 1 11.4 5.836c.02 0 1.202.653 1.202.664 0 .012-6.07 3.38-6.098 3.383-.014.002-1.394-.757-3.065-1.686z"/><path style="fill:#40b6e0" d="M3.457 10.928C1.787 10.001.417 9.236.409 9.23c-.006-.007.259-.162.59-.346.58-.322.603-.333.64-.312l2.45 1.36 2.411 1.34 2.41-1.34 2.451-1.36c.038-.022.058-.013.641.311.331.184.596.34.59.346-.015.014-6.06 3.373-6.084 3.381-.009.003-1.382-.754-3.051-1.682z"/></svg>