<!--Copyright 2000-2021 JetBrains s.r.o. and contributors. Use of this source code is governed by the Apache 2.0 license that can be found in the LICENSE file.--><svg xmlns="http://www.w3.org/2000/svg" width="16" height="16" viewBox="0 0 16 16"><g fill="none" fill-rule="evenodd"><path fill="#AFB1B3" d="M2 6h4v4H2zm1 1v2h2V7zm7-1h4v4h-4zm1 1v2h2V7z"/><path fill="#3592C4" d="M12.958 11.002h.043v4.184l-1.38-1.38A5 5 0 0 1 3.04 11h1.52a3.501 3.501 0 0 0 6 1.744l-1.742-1.742h2.623V11h1.519v.002ZM3.084 4.858H3.04V.674l1.38 1.38a5 5 0 0 1 8.582 2.806h-1.52a3.501 3.501 0 0 0-6-1.744l1.742 1.742H4.602v.002H3.083z"/></g></svg>