<svg width="13" height="13" viewBox="0 0 13 13" xmlns="http://www.w3.org/2000/svg"><path fill="#52a3a5" fill-rule="evenodd" d="M10.984 5.005a1.813 1.813 0 0 0-2.521-.044.176.176 0 0 0 0 .255l.218.223a.173.173 0 0 0 .227.016 1.04 1.04 0 0 1 1.363 1.57C8.83 8.462 6.907 4.426 2.544 6.507a.59.59 0 0 0-.255.831l.75 1.294a.59.59 0 0 0 .8.22l.018-.01-.014.009.328-.183q.556-.344 1.046-.779a.185.185 0 0 1 .237-.009.17.17 0 0 1 .008.256q-.516.462-1.103.83h-.013l-.332.185A.947.947 0 0 1 2.732 8.8l-.707-1.22C.67 8.541-.161 10.393.29 12.737a.17.17 0 0 0 .168.14h.799a.173.173 0 0 0 .177-.157 1.181 1.181 0 0 1 2.342 0 .17.17 0 0 0 .17.152h.781a.176.176 0 0 0 .17-.152 1.181 1.181 0 0 1 2.343 0 .176.176 0 0 0 .17.152h.776a.173.173 0 0 0 .172-.17c.018-1.094.314-2.35 1.153-2.98 2.913-2.178 2.147-4.044 1.473-4.718m-2.968 3.29-.555-.278a.348.348 0 1 1 .555.28z" style="stroke-width:.88"/><path d="M12.61.397c-.241-.242-.58-.235-.841.026L9.038 3.155l-.554.606.07-1.11.007-1.067a.56.56 0 0 0-.156-.421c-.219-.22-.55-.22-.79.02a.62.62 0 0 0-.175.427v3.354a.596.596 0 0 0 .6.6l3.358.004a.62.62 0 0 0 .427-.176c.239-.239.239-.57.02-.789a.57.57 0 0 0-.424-.159l-1.067.007-1.107.066.603-.55 2.731-2.732c.262-.261.272-.596.03-.838" fill="#548AF7" style="stroke-width:.8"/></svg>