<!--Copyright 2000-2022 JetBrains s.r.o. and contributors. Use of this source code is governed by the Apache 2.0 license.--><svg width="16" height="16" viewBox="0 0 16 16" fill="none" xmlns="http://www.w3.org/2000/svg"><path d="M15.212 7.5a1 1 0 0 1 0 1L12.039 14a1 1 0 0 1-.867.5H4.828a1 1 0 0 1-.867-.5L.788 8.5a1 1 0 0 1 0-1L3.961 2a1 1 0 0 1 .867-.5h6.344a1 1 0 0 1 .867.5l3.173 5.5Z" stroke="#3F89EC"/><path d="m10.5 8.433-3.75 2.165a.5.5 0 0 1-.75-.433v-4.33a.5.5 0 0 1 .75-.433l3.75 2.165a.5.5 0 0 1 0 .866Z" stroke="#3F89EC"/></svg>