<!--SPDX-License-Identifier: MIT--><svg width="13" height="13" viewBox="0 0 16 16" xml:space="preserve" xmlns="http://www.w3.org/2000/svg"><path fill="#EFBB40" d="M1.656 5.11v7.73l1.634.821V9.002l.894 5.03 1.454.726.934-4.181v4.575l1.64.807V8.237L5.72 7.055l-.79 3.686-.794-4.445Z" style="stroke-width:1.09369"/><path fill="#9D7EB4" d="M8.448 15.998 8.44 8.236l2.603-1.352v5.602l3.6-1.862.014 2.11z" style="stroke-width:1.09369"/><path fill="#C96577" d="M7.391.092 5.551 1.72s3.591 1.846 4.028 2.064 1.057.638.386 1.258c-.672.622-1.411.538-1.914.286-.503-.251-4.23-2.132-4.23-2.132L1.927 4.809s3.659 1.861 4.262 2.18c.605.32 2.854 1.108 4.985-.553s1.829-2.266 1.829-2.384-.05-.738-.419-1.124c-.37-.386-1.444-.94-1.896-1.175A772 772 0 0 0 7.39.092" style="stroke-width:.0610291"/></svg>