<!--Copyright 2000-2022 JetBrains s.r.o. and contributors. Use of this source code is governed by the Apache 2.0 license.--><svg width="16" height="16" viewBox="0 0 16 16" fill="none" xmlns="http://www.w3.org/2000/svg"><path d="M1 10.5a.5.5 0 0 0 1 0zm12.626-.168a.5.5 0 1 0 .748-.664zM11.5 10a.5.5 0 1 0 0 1zm3 .5v.5h.5v-.5zm.5-3a.5.5 0 0 0-1 0zm-13.5 3H2v.001-.007a2 2 0 0 1 .008-.173 6 6 0 0 1 .063-.52c.073-.436.217-1.01.501-1.577.283-.566.7-1.117 1.315-1.527C4.499 6.29 5.337 6 6.5 6V5c-1.337 0-2.374.336-3.168.865-.791.528-1.312 1.227-1.654 1.911a6.6 6.6 0 0 0-.593 1.86 7 7 0 0 0-.085.856v.007zm5-4.5c1.568 0 3.326 1.026 4.754 2.144a21 21 0 0 1 2.37 2.186l.002.002L14 10l.373-.332v-.002l-.003-.003-.01-.01q-.012-.015-.037-.041l-.138-.149a22 22 0 0 0-2.314-2.107C10.424 6.224 8.43 5 6.5 5zm5 5h3v-1h-3zm3.5-.5v-3h-1v3z" fill="#389FD6" stroke="#389FD6" stroke-width=".75"/></svg>