<!--Copyright 2000-2022 JetBrains s.r.o. and contributors. Use of this source code is governed by the Apache 2.0 license.--><svg width="20" height="20" viewBox="0 0 20 20" fill="none" xmlns="http://www.w3.org/2000/svg"><path d="M18.691 9.486a1 1 0 0 1 0 1.028l-3.9 6.5a1 1 0 0 1-.857.486H6.066a1 1 0 0 1-.857-.485l-3.9-6.5a1 1 0 0 1 0-1.03l3.9-6.5a1 1 0 0 1 .857-.485h7.868a1 1 0 0 1 .857.486z" stroke="#3F89EC" stroke-width="1.65"/><path d="m14.125 10.216-6 3.465a.25.25 0 0 1-.375-.217V6.536a.25.25 0 0 1 .375-.217l6 3.464a.25.25 0 0 1 0 .434Z" stroke="#3F89EC" stroke-width="1.65"/></svg>