<svg xmlns="http://www.w3.org/2000/svg" width="13" height="13" viewBox="0 0 13 13"><g fill="#DA4648"><path d="m8.708 9.527.459-.588s-1.045.32-2.793.32c-1.75 0-2.778-.314-2.778-.314l.515.641.182 2.018c0 .216.95.391 2.124.391 1.173 0 2.125-.175 2.125-.391l.166-2.077zM9.27.01l-1-.02L7.34 2c-.305-.008-.611 0-.916 0-2.154 0-3.9.173-3.9.4 0 .227 1.746.5 3.9.5s3.9-.273 3.9-.5c0-.167-.625-.336-1.984-.4L9.27.01z"/><path d="M7.517 2.842c-.223.002-.38-.004-.443-.142a.475.475 0 0 1-.026-.162c0-.095.028-.151.063-.186l.034.128c-.015.012-.023.026-.023.042 0 .072.227.122.401.116.174-.005.384-.04.384-.11 0-.022-.015-.043-.043-.059l.033-.127c.045.034.085.1.085.213 0 .193-.102.222-.168.244 0 0-.075.04-.297.043zm2.733.168c0 .005-.527.42-3.877.42-3.35 0-3.822-.42-3.822-.42l.853 5.17s.736.44 2.95.44c2.216 0 2.979-.43 2.979-.43l.917-5.18z"/></g></svg>