<svg xmlns="http://www.w3.org/2000/svg" width="13" height="13" viewBox="0 0 13 13"><path fill="#E7170D" fill-rule="evenodd" d="M3.198 6.673c.257.082.53.127.802.127 1.155 0 2.3-.806 2.3-1.8 0-.198-.05-.39-.138-.568.373-.184.62-.395.738-.632.133-.267.167-.533.1-.8-.33.467-.663.7-1 .7-.217 0-.449-.043-.695-.128A2.673 2.673 0 0 0 4 3.2c-1.045 0-2.3.806-2.3 1.8 0 .698.565 1.303 1.3 1.602-.797.029-1.6.397-1.6.848 0 .35.572.95 1.103 1.08.17.042-1.016.662-1.183.999a6 6 0 1 1 2.856 2.504c-.083-.162-.314-.574-.076-.733.2-.133.9.7 1.5.7.498 0-.6-.6-.3-.8.147-.098 1.2.8 1.7.5.167-.1-1.4-1.1-.9-.9.5.2 2.7.2 2.2-.2-.221-.177-1.43-.38-1.4-.5.03-.12 3-.1 3-.9H8.7c-.474 0-1-.2-1-.2 1.01-.22 2.8-.6 2.8-1.5 0-.05-.62.224-1.3.5-.645.262-1.52.45-1.4.3.305-.38 2.7-1.2 2.7-2.5 0-.127-.744.45-1.5.9-.792.472-1.599.904-1.5.75.167-.26 2.7-1.85 2.7-3.15 0-.2-.949.825-1.7 1.5-.806.724-1.452 1.078-1.3.9.6-.7 2.3-2.2 2.3-4 0-.2-1.5 2.2-2.3 3-1.2 1.2-2.5 2-3.2 2-.5 0-1.24 0-1.24-.4 0-.282.36-.514.438-.627zM4 6.5C3 6.5 3 5.276 3 5s0-1.5 1-1.5S5 4.724 5 5s0 1.5-1 1.5zm0 4.1c-1.105 0-2-.403-2-.9s.895-.9 2-.9c.58 0 1.135.002 1.5.18.33.16.5.484.5.72 0 .497-.895.9-2 .9z"/></svg>