<svg xmlns="http://www.w3.org/2000/svg" width="13" height="13" viewBox="0 0 13 13"><defs><linearGradient id="a" x1="0%" x2="74.521%" y1="0%" y2="64.11%"><stop offset="0%" stop-color="#5A9FD4"/><stop offset="100%" stop-color="#306998"/></linearGradient><linearGradient id="b" x1="50%" x2="23.443%" y1="82.276%" y2="44.914%"><stop offset="0%" stop-color="#FFD43B"/><stop offset="100%" stop-color="#FFE873"/></linearGradient></defs><g fill="none"><path fill="url(#a)" d="M5.598.04a7.72 7.72 0 0 0-1.292.11C3.16.353 2.954.776 2.954 1.556v1.03h2.704v.344H1.939C1.153 2.93.465 3.402.25 4.3c-.248 1.03-.26 1.674 0 2.75.192.8.651 1.37 1.437 1.37h.93V7.184c0-.892.772-1.68 1.689-1.68h2.7c.752 0 1.352-.619 1.352-1.374V1.556C8.358.823 7.74.273 7.006.15A8.433 8.433 0 0 0 5.598.04zM4.135.87c.28 0 .508.232.508.517a.51.51 0 0 1-.508.513.51.51 0 0 1-.507-.513c0-.285.227-.517.507-.517z" transform="translate(1 1)"/><path fill="url(#b)" d="M8.695 2.93v1.2c0 .931-.789 1.715-1.689 1.715h-2.7c-.74 0-1.352.633-1.352 1.374v2.574c0 .733.637 1.164 1.352 1.374.856.252 1.676.297 2.7 0 .681-.197 1.352-.593 1.352-1.374v-1.03h-2.7v-.344H9.71c.786 0 1.079-.548 1.352-1.37.282-.847.27-1.662 0-2.748-.194-.783-.565-1.371-1.352-1.371H8.695zM7.176 9.45c.28 0 .508.23.508.513a.512.512 0 0 1-.508.517.513.513 0 0 1-.507-.517.51.51 0 0 1 .507-.513z" transform="translate(1 1)"/></g></svg>