<svg xmlns="http://www.w3.org/2000/svg" width="13" height="13" viewBox="0 0 13 13"><g fill="none"><path fill="#FBA919" d="M2.212 3.095s.218.841.25 1.121c.03.28-.561.904-.561 1.215 0 .312.124.873.81 1.153.685.28.778.997.778 1.433 0 .436-.249 1.277-.249 1.277s-.155 2.087.686 2.461c.84.374.654.374.84.374.187 0 1.558.56 2.368.343.81-.218 1.028-.468 1.028-.468s.81.063 1.06-.654c.248-.716.404-2.212.31-2.897-.093-.685-.217-1.589.343-1.9.561-.312 1.153-.685 1.06-.997-.094-.312-.592-.748-.592-.748s-.125-.778-.032-.965c.094-.187.655-.655.343-.997-.311-.343-.872-.343-.872-.343l-.717.062s-1.214-1.09-2.803-1.028C4.673 1.6 3.676 2.565 3.676 2.565s-.53-.187-.997 0c-.467.187-.56 0-.467.53z"/><path fill="#E78724" d="M5.059 7.733s-.617.943-1.07 1.613c-.07.103.453.11.453.11l.617-1.723zm.293-1.956s-.186.464-.287.71c-.111.268-.533.4-.533.4s.219-.229.219-.81c0-.243.314-.34.314-.34l.287.04z"/><path fill="#E78724" d="M5.165 6.04s-.381.453-1.089.2c-.707-.255-.78-1.162-.78-1.416s1.343.254 1.524.363c.181.109.526.544.345.853zM2.492 1.194s.653-.128 1.089.217c.435.345.562.617.562.617l-.734.582s-.354-.165-.463-.636c-.109-.472-.036-.69-.454-.78z"/><path fill="#E78724" d="M4.974 4.73c-.281-.4-.744-.574-1.114-.602-.631-.05-.93.173-.93.173s1.032.044 1.33.435c.555.728 1.363.787 1.493.627-.15.008-.314-.066-.49-.233-.11-.104-.2-.274-.289-.4zM3.23 6.14s-1.146-.393-.928-.792c.217-.4.044-.617.044-.617s-.64.478-.477.986c.1.312.268.537 1.192.97.443.823.091 2.304.112 2.31.035.012.622-.29.582-1.675-.012-.425-.046-1.006-.525-1.181zm1.502-4.237c-.48.245-1.139.585-1.139.585l.26.13a.86.86 0 0 0-.038.063l.266.121s.65.47 1.048.773c-.133-.408-.522-1.05-.522-1.05s-.11-.295.125-.622zm1.597 9.954c-1.477 0-1.978-.75-1.978-.75l.231.562c.087.244 1.018 1 1.745 1"/><path fill="#E78724" d="M4.513 10.6s.136.831.68.831c.463 0 .599-.702.599-.847l-1.279.016zm-.906-1.252c.049-.134.218-.672.272-1.162.066-.586.042-1.444.042-1.444s-.145.562-.272.653c-.127.09-.363.708-.363.708s-.127.918-.187 1.226c.167.034.307-.064.508.019zm-1.314-3.64s.308-.109.4-.78c.09-.671-.11-1.252-.11-1.252s.018.925-.09 1.107c-.11.181-.2.235-.327.471s.054.381.127.454z"/><path fill="#FDC168" d="m3.03 1.812-.24-.5c-.704.08.24.5.24.5z"/><path fill="#FBA919" d="M4.983 1.705s-.29-.049-.435-.266C4.403 1.22 3.99.785 3.336.78 2.68.776 2.032.955 2.032.955l.566.357a5.78 5.78 0 0 1 .338.005c.71.024.82.726.82.726L6.259 1.7"/><path fill="#FFF" d="M5.225 5.586s-.339.338-.859.23c-.52-.11-.834-.34-.859-.739-.024-.399.11-.556.11-.556s.58.182.858.424c.278.241.484.628.75.64z"/><path fill="#C9C9C9" d="M4.815 5.465s-.294.134-.622.024c-.43-.143-.458-.59-.458-.59s-.264.774.475.923c.593.12.944-.224.944-.224l-.339-.133z"/><path fill="#463014" d="M5.024 1.54c-.032-.663.512-1.191.7-1.214.011.112-.01.551.179.686.054-.358.24-.753.972-1.012-.156.416-.02.765.044.926.5-.454.837-.379.837-.379s-.347.6-.211.993c-1.004-.078-2.516.107-2.521 0zM2.895 2.552c-.24-.199-.06-.383-.08-.609-.01-.12-.02-.233-.06-.296-.22-.348-.74-.454-.745-.455l-.244-.048.161-.189C1.948.93 2.612.297 3.64.628c.718.232 1.25 1.018 1.27 1.05l-.36.169c-.005-.007-.425-.745-1.041-.944a1.577 1.577 0 0 0-1.154.092c.209.084.482.236.647.496.078.123.09.277.103.427.017.198.033.385.179.506l-.388.127zm-.64 2.902s.377-.375.488-1.103c.044-.287-.034-.853-.158-1.07a3.564 3.564 0 0 1-.147 1.07s-.115.994-.183 1.103z"/><path fill="#463014" d="M3.847 2.173s-.097-.423-.365-.636c-.378-.301-.84-.141-.844-.14L2.57 1.19c.022-.007.55-.174 1.036.168.49.344.548.656.553.69l-.313.125zm-.629 3.011s-.176-.226-.144-.476c.016-.123.079-.25.192-.294.21-.083.304.131.304.131s-.296.066-.352.64z"/><path fill="#463014" d="M4.942 5.53a.66.66 0 0 1 .01.02s-.494.37-1-.006c-.271-.202-.245-.7-.162-.912.215.05.399.137.552.24-.194-.172-.363-.3-.363-.302l-.22-.063-.427-.146c-.005.033-.161.763.289 1.26.2.221 1.134.716 1.578-.13l-.257.039z"/><path fill="#463014" d="M4.896 5.584c.278.423.98.182.967-.266 0 0-.468.259-.883-.218-.241-.278-1.016-1.045-2.067-.79.726.16 1.686.823 1.983 1.274z"/><path fill="#463014" d="M2.815 6.779c.067.038.302.283.303.648 0 .183-.019 1.104-.11 1.666.137.09.232.108.368.198.068-.651.117-1.595.094-1.976-.026-.435-.259-.726-.474-.85a9.176 9.176 0 0 0-.21-.116c-.369-.2-.751-.406-.751-.759 0-.276.107-.362.22-.453l.013-.01c.075-.061.16-.13.211-.244.138-.31.16-1.099 0-1.3-.08-.1-.294-.435-.232-.66a.302.302 0 0 1 .166-.196.831.831 0 0 1 .375-.072c.305 0 .643.093.818.148.624.198 1.377.768 1.593.939l.01.008.139.096L5.26 3.7c-.005-.009-.552-.909-1.53-1.238a3.108 3.108 0 0 0-.932-.172c-.219 0-.405.038-.552.113a.664.664 0 0 0-.35.423c-.124.453.278.958.292.974.047.083.067.692-.042.935a.375.375 0 0 1-.107.109l-.054.04c-.152.116-.384.29-.384.692 0 .55.558.849 1.006 1.088.073.04.143.077.207.114z"/><g fill="#463014"><path d="M2.895 2.551c-.24-.199-.061-.383-.08-.609-.01-.12-.02-.234-.06-.296-.22-.348-.74-.454-.745-.455l-.244-.048.161-.189C1.948.93 2.612.297 3.64.628c.718.232 1.25 1.017 1.27 1.05l-.36.169C4.543 1.84 4.123 1.1 3.507.903a1.577 1.577 0 0 0-1.154.092c.209.084.482.236.647.496.077.122.09.277.103.427.017.198.032.385.178.506l-.387.127z"/><path d="m2.887 2.592-.015-.013c-.178-.147-.146-.293-.116-.433.014-.065.029-.132.023-.2-.01-.117-.02-.226-.054-.28-.21-.332-.717-.438-.722-.44l-.305-.06L1.9.932A1.7 1.7 0 0 1 3.05.496c.197 0 .398.033.599.098.75.241 1.284 1.056 1.29 1.064l.021.034-.426.2-.017-.026c-.046-.078-.45-.745-1.021-.929a1.428 1.428 0 0 0-.44-.068c-.274 0-.496.074-.614.125.198.088.437.238.589.477.082.13.095.29.108.443.016.191.032.37.166.482l.05.042-.469.154z"/></g><g fill="#463014"><path d="M3.846 2.173s-.096-.424-.364-.637c-.379-.3-.84-.14-.845-.14L2.57 1.19a1.24 1.24 0 0 1 1.037.168c.489.344.548.656.553.69l-.314.125z"/><path d="m3.82 2.222-.009-.041c-.001-.004-.096-.413-.352-.616a.819.819 0 0 0-.524-.176.962.962 0 0 0-.286.042l-.035.012-.09-.277.035-.01c.015-.006.155-.05.354-.05.261 0 .508.077.715.222.501.353.562.679.568.715l.004.028-.38.151zm-.885-.905c.215 0 .412.066.57.19.227.182.334.502.366.617l.247-.098c-.022-.088-.12-.349-.532-.638a1.147 1.147 0 0 0-.673-.209c-.138 0-.244.022-.297.035l.045.138a1.08 1.08 0 0 1 .274-.035z"/></g><path fill="#463014" d="M5.17 11.232a.458.458 0 0 1-.292-.105c-.058-.05-.254-.23-.34-.451-.033-.083-.026-.149.021-.196.032-.033.1-.072.235-.072h.733c.103 0 .177.022.22.066.055.056.037.128.022.166a1.811 1.811 0 0 1-.324.48.369.369 0 0 1-.275.112zm.161-5.623-.435-.025s.111.175.183.4c.082.255-.074.628-.074.628s.58-.584.326-1.003zM4.8 12.254c-1.378-.106-1.862-1.408-1.862-1.679h.36-.18.18c.001.117.367 1.23 1.53 1.32l-.028.359z"/><path fill="#FFF" d="M4.413 9.922a.903.903 0 0 1 .002-.359c-.105-.078-.292-.108-.433-.153-.116-.073-.705.074-1.133-.443-.536-.649-.424-1.036-.424-1.036-.137.153-.27.095-.48.807-.21.712.099 1.209.673 1.707.272.235.656.332.986.37-.111-.111.188-.122.395-.2-.017-.166.011-.328.135-.458a.702.702 0 0 1 .272-.163l.015-.038a.318.318 0 0 1-.008-.034z"/><path fill="#C9C9C9" d="M3.996 10.61a1.27 1.27 0 0 1-.03-.106c-.01-.039-.057-.15.002-.023a.47.47 0 0 1-.032-.1c-.93 0-1.74-.64-1.584-1.983-.122-.162-.293.326-.293.326s-.465 1.353.738 1.877c.4.175.755.3.839.25.174.035.33-.086.39-.166a.888.888 0 0 1-.03-.074z"/><path fill="#463014" d="M4.396 9.727a.748.748 0 0 1 .08-.333l.012-.022c-.358-.003-.77-.037-1.122-.178-.386-.154-.869-.682-.952-1.303 0 0-.727.56-.513 1.762.2 1.127 1.144 1.495 2.22 1.557 0-.007-.121-.259-.083-.412-.61.044-1.294-.192-1.624-.735-.302-.496-.217-1.345-.093-1.469.303.955 1.392 1.15 2.075 1.133z"/><path fill="#463014" d="M4.509 9.043c-.194.568-.59 1.028-.59 1.028s.544-.025.575-.12c.022-.072.49-1.17.67-2.456-.169.278-.639 1.5-.655 1.548z"/><path fill="#E78724" d="M7.591 7.733s.617.943 1.07 1.613c.07.103-.453.11-.453.11L7.59 7.733zm-.294-1.956s.186.464.288.71c.11.268.532.4.532.4s-.218-.229-.218-.81c0-.243-.315-.34-.315-.34l-.287.04z"/><path fill="#E78724" d="M7.485 6.04s.381.453 1.089.2c.707-.255.78-1.162.78-1.416s-1.343.254-1.524.363c-.182.109-.526.544-.345.853zm2.672-4.846s-.653-.128-1.088.217c-.436.345-.563.617-.563.617l.734.582s.355-.165.464-.636c.109-.472.036-.69.453-.78z"/><path fill="#E78724" d="M7.676 4.73c.28-.4.744-.574 1.114-.602.63-.05.93.173.93.173s-1.033.044-1.33.435c-.555.728-1.364.787-1.493.627.15.008.314-.066.49-.233.11-.104.2-.274.289-.4zM9.42 6.14s1.146-.393.928-.792c-.218-.4-.044-.617-.044-.617s.64.478.477.986c-.1.312-.269.537-1.192.97-.443.823-.092 2.304-.113 2.31-.035.012-.622-.29-.581-1.675.012-.425.046-1.006.525-1.181zM7.918 1.904c.48.245 1.139.585 1.139.585l-.26.13c.025.04.037.063.037.063l-.266.121s-.65.47-1.047.773c.132-.408.522-1.05.522-1.05s.11-.295-.125-.622zM6.32 11.857c1.477 0 1.977-.75 1.977-.75l-.23.562c-.088.244-1.019 1-1.745 1"/><path fill="#E78724" d="M8.137 10.6s-.136.831-.68.831c-.463 0-.6-.702-.6-.847l1.28.016zm.905-1.252a6.002 6.002 0 0 1-.272-1.162c-.065-.586-.04-1.444-.04-1.444s.145.562.272.653c.127.09.363.708.363.708s.126.918.186 1.226c-.166.034-.306-.064-.508.019zm1.315-3.64s-.309-.109-.4-.78c-.09-.671.11-1.252.11-1.252s-.019.925.09 1.107c.11.181.2.235.327.471s-.055.381-.127.454z"/><path fill="#FDC168" d="m9.988 1.812.24-.5c.703.08-.24.5-.24.5z"/><path fill="#FBA919" d="M7.666 1.705s.29-.049.436-.266c.145-.218.556-.654 1.212-.658a5.46 5.46 0 0 1 1.304.174l-.567.357a5.786 5.786 0 0 0-.337.005c-.71.024-.82.726-.82.726L6.391 1.7"/><path fill="#FFF" d="M7.425 5.586s.338.338.858.23c.52-.11.835-.34.86-.739.023-.399-.11-.556-.11-.556s-.58.182-.859.424c-.278.242-.483.628-.75.64z"/><path fill="#C9C9C9" d="M7.834 5.465s.294.134.622.024c.43-.143.459-.59.459-.59s.263.774-.476.923c-.593.12-.943-.224-.943-.224l.338-.133z"/><path fill="#463014" d="M9.754 2.551c.24-.199.062-.383.08-.609.01-.12.02-.233.06-.296.22-.348.74-.454.746-.455l.244-.048-.162-.189c-.02-.024-.684-.657-1.711-.326-.719.232-1.25 1.018-1.27 1.05l.36.169c.004-.007.425-.745 1.041-.944.498-.16.957-.008 1.154.092-.21.084-.483.236-.647.496-.078.123-.091.277-.104.427-.016.198-.032.385-.178.506l.387.127zm.74 2.902s-.377-.375-.488-1.103c-.044-.287.033-.853.158-1.07-.023.535.147 1.07.147 1.07s.114.994.182 1.103z"/><path fill="#463014" d="M8.803 2.173s.097-.423.365-.636c.378-.301.84-.141.844-.14l.067-.207a1.243 1.243 0 0 0-1.037.168c-.489.344-.547.656-.553.69l.314.125zm.679 3.011s.176-.226.144-.476c-.016-.123-.079-.25-.192-.294-.21-.083-.304.131-.304.131s.296.066.352.64z"/><path fill="#463014" d="m7.708 5.53-.01.02s.493.37 1-.006c.27-.202.245-.7.162-.912a1.63 1.63 0 0 0-.552.24c.193-.172.363-.3.362-.302l.22-.063.427-.146c.006.033.162.763-.288 1.26-.2.221-1.134.716-1.578-.13l.257.039z"/><path fill="#463014" d="M7.754 5.584c-.278.423-.98.182-.968-.266 0 0 .469.259.883-.218.242-.278 1.017-1.045 2.068-.79-.726.16-1.687.823-1.983 1.274z"/><path fill="#463014" d="M9.835 6.779c-.067.038-.303.283-.303.648 0 .183.018 1.104.109 1.666-.136.09-.231.108-.367.198-.068-.651-.117-1.595-.094-1.976.026-.435.258-.726.474-.85a8.88 8.88 0 0 1 .21-.116c.369-.2.75-.406.75-.759 0-.276-.107-.362-.22-.453l-.012-.01a.657.657 0 0 1-.211-.244c-.138-.31-.16-1.099 0-1.3.08-.1.294-.435.232-.66a.303.303 0 0 0-.166-.196.83.83 0 0 0-.375-.072c-.305 0-.644.093-.818.148-.624.198-1.377.768-1.593.939-.007.004-.01.007-.01.008l-.14.096.087-.145c.006-.009.553-.909 1.531-1.238.19-.065.564-.172.932-.172.219 0 .404.038.551.113.18.092.3.238.351.423.124.453-.279.958-.292.974-.047.083-.067.692.041.935a.374.374 0 0 0 .108.109l.053.04c.153.116.384.29.384.692 0 .55-.557.849-1.005 1.088-.073.04-.144.077-.207.114z"/><path fill="#463014" d="M9.17 2.487c-.088-.15-.315-.44-.838-.695-.583-.284-1.258-.429-2.006-.43h-.003c-.748.001-1.423.145-2.006.43-.522.254-.749.544-.838.694l-.038.05.448.1.014-.017.007-.017c.007-.03.067-.19.566-.432.533-.26 1.155-.392 1.849-.393.693 0 1.315.132 1.848.393.499.243.56.403.566.432l.007.017.015.017.447-.1-.038-.05z"/><g fill="#463014"><path d="M9.754 2.551c.24-.199.062-.383.08-.609.01-.12.02-.234.06-.296.22-.348.74-.454.746-.455l.244-.048-.162-.189c-.02-.024-.684-.657-1.711-.326-.719.232-1.25 1.017-1.27 1.05l.36.169c.004-.007.425-.746 1.04-.944.5-.161.958-.008 1.155.092-.21.084-.483.236-.647.496-.078.122-.091.277-.104.427-.016.198-.032.385-.178.506l.387.127z"/><path d="m9.293 2.438.05-.042c.135-.111.15-.29.166-.482.013-.154.027-.313.109-.443.151-.239.39-.388.588-.477a1.604 1.604 0 0 0-.614-.125c-.151 0-.299.023-.44.068-.57.184-.975.85-1.02.929l-.018.027-.426-.2.022-.035C7.715 1.65 8.25.835 9 .594c.2-.065.402-.098.598-.098a1.7 1.7 0 0 1 1.152.435l.202.236-.305.06c-.005 0-.512.107-.722.438-.035.056-.044.165-.054.28a.68.68 0 0 0 .022.201c.031.14.062.286-.115.433l-.016.013-.469-.154z"/></g><g fill="#463014"><path d="M8.802 2.173s.097-.424.365-.637c.379-.3.84-.14.845-.14l.067-.206a1.243 1.243 0 0 0-1.037.168c-.49.344-.548.656-.553.69l.313.125z"/><path d="m8.45 2.071.003-.028c.006-.036.067-.362.568-.715.207-.145.454-.221.715-.221.199 0 .339.043.354.048l.035.011-.09.277L10 1.43a.967.967 0 0 0-.286-.042.818.818 0 0 0-.524.176c-.256.204-.351.612-.352.616l-.01.041-.379-.15zm1.538-.719.045-.138a1.23 1.23 0 0 0-.297-.035c-.25 0-.476.07-.673.209-.411.289-.51.55-.532.638l.247.098c.032-.115.14-.435.367-.616a.902.902 0 0 1 .568-.191c.124 0 .224.021.275.035z"/></g><path fill="#463014" d="M7.205 11.12a1.814 1.814 0 0 1-.324-.48c-.015-.038-.033-.11.022-.166.043-.044.117-.066.22-.066h.732c.136 0 .203.04.236.072.047.047.054.113.022.196a1.293 1.293 0 0 1-.341.451.458.458 0 0 1-.293.105.369.369 0 0 1-.274-.111zm.17-5.51.435-.026s-.112.175-.184.4c-.081.255.075.628.075.628s-.581-.584-.327-1.003z"/><path fill="#E78724" d="M6.325 4.227c-.247 0-.568-.006-.81-.18 0 0 .316.554.81.554v-.07.07c.494 0 .81-.554.81-.554-.242.174-.564.18-.81.18z"/><path fill="#463014" d="M7.004 4.225a1.219 1.219 0 0 1-.68.232 1.219 1.219 0 0 1-.678-.232s.36.496.677.5h.004c.317-.004.677-.5.677-.5zm.846 8.029-.028-.359c1.162-.09 1.528-1.203 1.53-1.32h.36c0 .271-.485 1.573-1.862 1.679z"/><path fill="#FFF" d="M8.237 9.922a.902.902 0 0 0-.002-.359c.104-.078.292-.108.433-.153.115-.073.705.074 1.133-.443.536-.649.423-1.036.423-1.036.138.153.27.095.48.807.21.712-.098 1.209-.673 1.707-.271.235-.655.332-.985.37.11-.111-.189-.122-.395-.2.016-.166-.011-.328-.136-.458a.701.701 0 0 0-.27-.163c-.007-.013-.011-.025-.017-.038a.318.318 0 0 0 .009-.034z"/><path fill="#C9C9C9" d="M8.653 10.61c.012-.034.021-.07.03-.106.01-.039.057-.15-.001-.023a.47.47 0 0 0 .032-.1c.93 0 1.74-.64 1.584-1.983.121-.162.292.326.292.326s.466 1.353-.737 1.877c-.401.175-.755.3-.84.25-.173.035-.33-.086-.39-.166a.838.838 0 0 0 .03-.074z"/><path fill="#463014" d="M8.254 9.727a.747.747 0 0 0-.08-.333l-.012-.022c.358-.003.77-.037 1.122-.178.386-.154.869-.682.952-1.303 0 0 .727.56.513 1.762-.2 1.127-1.144 1.495-2.22 1.557 0-.007.121-.259.082-.412.611.044 1.295-.192 1.625-.735.301-.496.217-1.345.093-1.469-.303.955-1.392 1.15-2.075 1.133z"/><path fill="#463014" d="M8.688 10.01c-.128-.14-.365-.305-.91-.305H4.871c-.544 0-.78.166-.91.305-.187.202-.216.483-.086.835.344.936.828 1.887 2.448 1.888h.004c1.62-.001 2.104-.952 2.448-1.888.13-.352.1-.633-.087-.835zm-.252.77c-.164.47-.605 1.607-2.111 1.61-1.506-.003-1.947-1.14-2.111-1.61-.091-.261-.084-.454.021-.574.072-.082.237-.18.613-.18h.393a1866.62 1866.62 0 0 1 2.168 0h.393c.376 0 .541.098.613.18.105.12.112.313.021.573z"/><path fill="#463014" d="M8.141 9.043c.194.568.59 1.028.59 1.028s-.545-.025-.575-.12c-.022-.072-.491-1.17-.671-2.456.17.278.64 1.5.656 1.548z"/></g></svg>