<svg xmlns="http://www.w3.org/2000/svg" width="13" height="13" viewBox="0 0 13 13"><g fill="none"><path fill="#9A9A9A" d="m0 2.256 1.598 2.989.954-.007V3.104zm10.413.847-.097 2.135h1.039l1.633-2.951z"/><path fill="#767676" d="m9.61 2.287-2.073 3.58-2.197.03-2.04-3.64H.002l1.036 1.946h.879l1.727 3.046 2.762 5.117 2.7-4.866 1.852-3.297h.973L13 2.287H9.61zm-3.187 6.53a1.177 1.177 0 1 1 0-2.354 1.177 1.177 0 0 1 0 2.354z"/><path fill="#3F89EC" d="M8.581 5.245a2.663 2.663 0 1 0-4.284 0 3.202 3.202 0 1 0 4.284 0zM6.455 3.009a.644.644 0 1 1 0 1.287.644.644 0 0 1 0-1.287zm-.016 5.525a.91.91 0 1 1 0-1.82.91.91 0 0 1 0 1.82z"/></g></svg>