<svg xmlns="http://www.w3.org/2000/svg" width="13" height="13" viewBox="0 0 13 13"><defs><radialGradient id="a" fx="50%" fy="50%"><stop offset="0%" stop-color="#FFF" stop-opacity=".1"/><stop offset="100%" stop-color="#FFF" stop-opacity="0"/></radialGradient></defs><g fill="none"><path fill="#01579B" d="M2.92 9.68.966 7.727a1.327 1.327 0 0 1-.375-.901c0-.152.086-.39.15-.526l1.803-3.756.376 7.136z"/><path fill="#40C4FF" d="M9.605 2.92 7.652.966c-.17-.17-.526-.375-.826-.375-.259 0-.512.052-.676.15L2.544 2.544l7.061.376zm-4.357 9.089h4.733V9.981L6.45 8.854 3.22 9.981z"/><path fill="#29B6F6" d="M2.544 8.629c0 .602.076.75.376 1.051l.3.3h6.76L6.677 6.226 2.544 2.544v6.085z"/><path fill="#01579B" d="M8.554 2.544h-6.01l7.437 7.437h2.028V5.323L9.605 2.92c-.337-.34-.637-.376-1.051-.376z"/><path fill="#FFF" d="M2.995 9.756c-.3-.302-.376-.6-.376-1.127v-6.01l-.075-.075v6.085c0 .528 0 .674.45 1.127l.226.225-.225-.225z" opacity=".2"/><path fill="#263238" opacity=".2" d="M11.934 5.248v4.658H9.906l.075.075h2.028V5.323z"/><path fill="#FFF" d="M9.605 3.044c-.372-.496-.677-.5-1.127-.5H2.544l.075.1h5.86c.224 0 .79-.05 1.126.4z" opacity=".2"/><path fill="url(#a)" d="M11.884 5.198 9.555 2.87 7.602.916c-.17-.17-.526-.375-.826-.375-.259 0-.512.052-.676.15L2.494 2.494.691 6.25c-.064.137-.15.374-.15.526 0 .328.144.663.375.901l1.8 1.787c.043.053.094.107.154.166l.075.076.225.225 1.953 1.953.075.075h4.733V9.931h2.028V5.273l-.075-.075z" opacity=".2" transform="translate(.05 .05)"/></g></svg>