<svg xmlns="http://www.w3.org/2000/svg" width="13" height="13" viewBox="0 0 13 13"><defs><radialGradient id="a" fx="50%" fy="50%"><stop offset="0%" stop-color="#FFF" stop-opacity=".1"/><stop offset="100%" stop-color="#FFF" stop-opacity="0"/></radialGradient></defs><g fill="none" fill-rule="evenodd"><path fill="#6E6E6E" d="M2 1.2h9V4H2zm4.453 3.6a4.509 4.509 0 0 0-2.118 2.8H2V4.8h4.453zm4.494 0H11v.031a4.497 4.497 0 0 0-.053-.031zM4.21 8.4a4.48 4.48 0 0 0 .748 2.8H2V8.4h2.21z"/><g fill-rule="nonzero"><path fill="#01579B" d="M6.456 11.324 5.05 9.918a.956.956 0 0 1-.27-.65c0-.109.061-.28.108-.378l1.298-2.704.27 5.138z"/><path fill="#40C4FF" d="M11.27 6.456 9.864 5.05c-.123-.123-.379-.27-.595-.27a.999.999 0 0 0-.487.108L6.186 6.186l5.084.27zm-3.137 6.545h3.407V11.54l-2.542-.811-2.326.811z"/><path fill="#29B6F6" d="M6.186 10.567c0 .433.054.54.27.757l.216.216h4.868L9.16 8.836l-2.974-2.65v4.38z"/><path fill="#01579B" d="M10.513 6.186H6.186l5.354 5.354H13V8.187l-1.73-1.73c-.243-.245-.46-.271-.757-.271z"/><path fill="#FFF" d="M6.519 11.378c-.222-.217-.278-.431-.278-.811V6.24l-.055-.054v4.38c0 .38 0 .486.333.812l.167.162-.167-.162z" opacity=".2"/><path fill="#263238" opacity=".2" d="M12.946 8.133v3.353h-1.46l.054.054h1.461V8.187z"/><path fill="#FFF" d="M11.27 6.686c-.268-.496-.488-.5-.811-.5H6.186l.054.1h4.219c.161 0 .569-.05.81.4z" opacity=".2"/><path fill="url(#a)" d="M6.88 2.066 5.474.66C5.35.537 5.095.39 4.879.39a.999.999 0 0 0-.487.108L1.796 1.796.498 4.5c-.047.098-.109.27-.109.379a.96.96 0 0 0 .27.649l1.297 1.286c.02.026.616.624 1.787 1.797H7.15V7.15h1.46V3.796l-1.73-1.73z" opacity=".2" transform="translate(4.39 4.39)"/></g></g></svg>