<svg xmlns="http://www.w3.org/2000/svg" width="13" height="13" viewBox="0 0 13 13"><g fill="none" fill-rule="evenodd" fill-opacity=".7"><path fill="#62B543" d="M0 2h13v9H0z"/><path fill="#231F20" d="M2.23 9C1.456 9 .94 8.73.6 8.326l.689-.767c.284.312.56.497.908.497.412 0 .668-.249.668-.824V4H4v3.282c0 .59-.184 1.03-.482 1.328-.305.305-.748.39-1.288.39zm4.2 0H4.587V8H6.43c.447 0 .717-.072.717-.363S7.027 7 6.146 7c-1.021 0-1.647-.542-1.647-1.529 0-.916.724-1.471 1.74-1.471h1.477v.9H6.224c-.419 0-.639.216-.639.458 0 .34.196.642 1.072.642.991 0 1.576.65 1.576 1.516C8.233 8.517 7.503 9 6.43 9zm2.475 0V4H12.3v1H9.998v1.003H12v1.006H9.998V9z"/></g></svg>